<?xml version="1.0" encoding="utf-8"?>
<!-- Generator: Adobe Illustrator 25.2.0, SVG Export Plug-In . SVG Version: 6.00 Build 0)  -->
<svg version="1.1" id="Layer_1" xmlns="http://www.w3.org/2000/svg" xmlns:xlink="http://www.w3.org/1999/xlink" x="0px" y="0px"
	 viewBox="0 0 408.7 363.6" style="enable-background:new 0 0 408.7 363.6;" xml:space="preserve">
<style type="text/css">
	.st0{fill:#212121;}
	.st1{fill:#FCFCFC;}
	.st2{fill:#696969;}
	.st3{fill:#909090;}
	.st4{fill:#8F8F8F;}
	.st5{fill:#474747;}
	.st6{fill:#FCED8E;}
	.st7{fill:#FCCE5C;}
	.st8{fill:#F7AE3C;}
	.st9{fill:#686868;}
	.st10{fill:#FBBCDD;}
	.st11{fill:#F5AC3B;}
	.st12{fill:#424242;}
	.st13{fill:#040304;}
	.st14{fill:#F2C75B;}
	.st15{fill:#C1AE81;}
	.st16{fill:#FDBDDE;}
</style>
<g>
	<path class="st0" d="M339.8,247.9c-2,2.2-4.1,4.5-6.1,6.7c-0.3,0.2-0.6,0.5-0.9,0.7c-3,2.7-6,5.4-9.1,8c-0.8,0.7-1.1,1.2-0.7,2.2
		c0.1,0.5,0.1,0.9,0.2,1.4c0,0.2,0,0.3,0,0.5c0,1.3,0,2.6,0,3.8c0,0.2,0,0.3,0,0.5c-0.6,6.3-2.3,12.4-5.7,17.8
		c-5.2,8.1-12.7,12.2-22.3,12.5c-1,0-1.9,0-2.9-0.3c-4.1-1.1-8.2-2-12.2-3.4c-4.4-1.5-7.4-4.8-9.6-8.8c-0.5-0.9-0.9-0.7-1.5-0.5
		c-8,2.3-16.1,4.2-24.3,5.3c-12.9,1.7-25.9,2.9-39,1.6c-4.3-0.4-8.5-1.2-12.8-1.9c-0.9-0.1-1.3,0-1.7,0.9
		c-2.5,5.9-6.9,10.1-12.3,13.2c-8.6,4.8-17.7,5.8-26.8,1.4c-6.9-3.3-12.3-8.3-16.1-15c-2.9-5-4.4-10.5-5.7-16
		c-0.4-1.9-0.9-3.7-1.3-5.6c-0.2-1-0.1-2-0.3-3c-0.2-1.1-0.5-2.2-0.7-3.2c-0.1-0.6-0.6-1.2-0.5-1.7c0.3-1.3-0.5-1.9-1.3-2.6
		c-8.2-7.9-15.7-16.5-21-26.6c-4.6-8.8-7.6-18.1-9.8-27.8c-0.1-0.5-0.2-1.1-0.4-1.8c-0.7,0.2-1.3,0.3-1.9,0.5
		c-14.7,4.8-27.7,12.6-39.6,22.3c-7.9,6.4-13.3,14.6-17.3,23.8c-1.4,3.3-2.3,6.7-2.5,10.2c-0.5,7.2-0.1,14.3,1.6,21.3
		c1.3,5.5,3.8,10.5,7.2,15c4,5.4,8.6,10.4,14,14.4c9.1,6.7,18.9,12.3,30.1,14.5c14.7,2.8,29.5,3.8,44.4,2.4
		c12.1-1.1,23.8-4.2,35.4-7.4c11.9-3.4,23.7-7.1,35.6-10c18.8-4.6,37.9-8.3,57.3-9.7c16.9-1.2,33.7-0.3,50.1,4
		c7.8,2.1,15.3,5.1,22.3,9.2c5.2,3,9.9,6.8,13.8,11.5c2.9,3.4,5,7.2,5.3,11.8c0.1,1.5,0,3.1-0.4,4.5c-1.5,6.5-7.2,9.6-14.2,7.5
		c-2.3-0.7-4.6-1.8-6.7-3.1c-3.2-2-6.2-4.2-9.3-6.4c-8.5-6.2-17.5-11.5-27.5-14.9c-12.3-4.2-24.8-4.9-37.5-3.1
		c-12.8,1.8-25.1,5.3-37.3,9.4c-13,4.4-25.8,9.1-38.8,13.6c-12.6,4.4-25.3,8.1-38.5,9.8c-23.1,3-45.7,1.2-67.4-7.8
		c-14.2-5.9-26.2-15-37-25.8c-6.5-6.5-12.1-13.6-16.7-21.5c-7.6-12.9-10-26.8-7.2-41.5c5.5-28.9,20.9-51.3,45.3-67.6
		c8-5.3,16.9-8.6,26.5-9.4c0.3,0,0.5-0.1,0.8-0.2c2.6-0.1,5.2-0.3,7.9-0.4c0-1,0-2,0-3c0.1-1.4,0.1-2.7,0.2-4.1c0-0.3,0-0.6,0.1-0.9
		c0.1-0.6,0.1-1.3,0.2-1.9c0-0.2,0-0.3,0.1-0.5c0.1-0.5,0.1-1,0.2-1.5c0-0.2,0-0.3,0.1-0.5c0.1-0.3,0.1-0.6,0.2-1
		c0-0.2,0.1-0.5,0.1-0.7s0.1-0.5,0.1-0.7s0-0.3,0.1-0.5s0.1-0.5,0.2-0.7c0-0.2,0.1-0.3,0.1-0.5c0.1-0.2,0.1-0.5,0.2-0.7
		c0-0.2,0.1-0.3,0.1-0.5c0.1-0.2,0.1-0.5,0.2-0.7c0-0.2,0.1-0.3,0.1-0.5c0.2-0.9,0.4-1.8,0.6-2.7c0-0.2,0.1-0.3,0.1-0.5
		s0.1-0.3,0.1-0.5s0.1-0.3,0.1-0.5c0.2-0.7,0.4-1.5,0.6-2.2c0-0.2,0.1-0.3,0.1-0.5c0.3-1,0.6-1.9,0.8-2.9c0-0.2,0.1-0.3,0.1-0.5
		c0.3-0.9,0.6-1.8,0.8-2.7c0.1-0.4,0.3-0.8,0.4-1.2c0.1-0.3,0.2-0.5,0.2-0.8c0.2-0.5,0.3-0.9,0.5-1.4c2-4.5,3.8-9.2,6.1-13.5
		c8.6-16,20.6-28.7,37.2-36.4c2-1,2.7-2,2.7-4.2c-0.2-7.1-0.1-14.2,0-21.3c0-1.1-0.3-1.4-1.4-1.5c-6.6-0.5-13.2-0.9-19.7-1.8
		c-3.3-0.4-6.5-1.5-9.7-2.7c-9.4-3.7-14.7-10.8-16.5-20.6c-1-5.3-1.3-10.7,0.2-16.1c1-3.4,2.5-6.7,4.4-9.7
		c4.5-7,10.9-10.8,19.2-11.6c7.8-0.7,15.4,0.3,22.5,3.9c5.4,2.7,9.8,6.8,13.5,11.5c0.5,0.6,1,1.2,1.5,1.9c0.2-0.2,0.3-0.3,0.3-0.4
		c3-6.2,8.2-10.3,13.9-13.7c3.8-2.3,8.1-2.9,12.3-3.8c6.4-1.3,12.5-0.3,18.5,2.6c9.8,4.6,15.6,12.3,18.9,22.3
		c2.1,6.2,2.1,12.3-0.9,18.3c-0.3,0.5-0.5,1.1-0.7,1.7c-3.5,9.7-10.6,15.1-20.6,16.6c-3.3,0.5-6.8,0.1-10.2,0.1
		c-0.4,6.5-0.7,13-1.1,19.5c2.2,0.4,4.2,0.7,6.3,1c0.3,0,0.6-0.3,0.9-0.5c0.1-0.1,0.1-0.4,0.2-0.6c1.8-5.4,5.1-9.6,9.7-12.9
		c14.4-10.4,30.2-13.4,47.5-9.9c5.2,1.1,10.2,2.5,15,5.2c2.1-2.5,4.9-3.9,7.9-4.9c0.2,0,0.3-0.1,0.5-0.1s0.3-0.1,0.5-0.1
		s0.3-0.1,0.5-0.1s0.5-0.1,0.7-0.1s0.3-0.1,0.5-0.1c1.7,0,3.4,0,5.1,0c0.3,0.1,0.6,0.1,1,0.2c0.2,0,0.5,0.1,0.7,0.1
		c0.2,0.1,0.5,0.1,0.7,0.2c0.2,0,0.3,0.1,0.5,0.1c0.2,0.1,0.5,0.1,0.7,0.2c0.2,0,0.3,0.1,0.5,0.1c0.4,0.2,0.9,0.3,1.3,0.5
		c2.7,1.3,5.7,2.2,8.1,4c2.9,2.2,5.3,5,7.9,7.5c0.1,0.2,0.3,0.3,0.4,0.5c0.1,0.1,0.2,0.3,0.3,0.4c0.2,0.3,0.5,0.6,0.7,0.9l0,0
		c0.1,0.2,0.3,0.4,0.4,0.5c0,0.1,0.1,0.1,0.1,0.2c0.2,0.3,0.5,0.6,0.7,1l0,0c0.4,0.6,0.7,1.2,1.1,1.7c0,0.1,0.1,0.1,0.1,0.2
		c0.2,0.3,0.4,0.7,0.6,1c0,0.1,0.1,0.1,0.1,0.2c0.4,0.7,0.7,1.3,1.1,2c0.3,0.6,0.6,1.2,0.9,1.8c0.6,1.3,1.1,2.7,1.7,4
		c0.1,0.2,0.1,0.4,0.2,0.6c0.4,1.6,0.8,3.1,1.3,4.7c0.3,1,0.6,2,0.8,3.1c0,0.2,0.1,0.4,0.1,0.6c0,0.3,0.1,0.5,0.1,0.8
		s0.1,0.6,0.1,0.9s0.1,0.7,0.1,1c0,0.5,0.1,0.9,0.1,1.4c0,0.9,0.1,1.8,0.1,2.7c0,0.5,0,1,0,1.4c0,0.2,0,0.5-0.1,0.7
		c-0.1,0.4-0.1,0.8-0.2,1.2c-0.2,2.2-0.5,4.4-0.8,6.7c0.2,0.1,0.6,0.3,1,0.5c5,2.7,10,5.4,15,8.1c7.4,4.1,13.8,9.5,19.5,15.8
		s11.1,13,16.6,19.5c0.3,0.3,0.5,0.6,0.8,0.9c1.5,2.2,2.9,4.3,4.5,6.5c0.6,0.8,1.3,1.5,2,2.3c0.7,0.6,1.4,1.3,2.2,1.8
		c10.1,6.4,9.9,19.5,4.7,26.9c-3.3,4.7-7.8,8.2-12.5,11.5c-0.7,0.5-1.3,1-1.8,1.7c-4.9,6.9-10.2,13.3-16.3,19.1
		c-0.1,0.1-0.2,0.2-0.3,0.4c-1.3,1.1-2.6,2.2-3.9,3.3c-0.5,0.5-0.9,1-1.4,1.5c-0.6,1-1.1,2-1.7,3c-0.7,1-1.6,2-2.4,3
		c-0.1,0.1-0.2,0.2-0.2,0.3c-0.4,0.5-0.8,0.9-1.2,1.4c-0.3,0.4-0.7,0.8-1,1.1C340.1,247.6,340,247.7,339.8,247.9z M153.6,82.8
		c-1,0.1-2,0.1-3.1,0.2c-0.2,4-0.3,7.9-0.5,11.9c11.3-3.9,22.7-6.3,34.6-6.3c0-2.4,0-4.8,0-7.2c-0.2,0-0.4-0.1-0.6-0.1
		c-2.6,0.1-5.2,0.1-7.8,0.3c-3.5,0.1-6.9,0.3-10.4,0.5c-1.5,0-3.1,0.1-4.6,0.2C158.7,82.5,156.1,82.6,153.6,82.8z M372.2,177.8
		c0.4-0.7,1-1.3,1.3-2.1c0.2-0.5,0.3-1.3,0-1.7c-0.4-0.4-1.2-0.7-1.8-0.7c-1,0.1-2,0.6-2.9,0.9c-1.1-1.7-2.2-3.4-3.4-5.1
		c-5.5-7.9-11.6-15.2-18.2-22.1c-4.5-4.8-9.4-9.3-15.2-12.6c-2.9-1.7-6-3-9-4.5c-3.5-1.8-6.9-3.8-10.6-5.4c-7.2-3.1-14.5-6.1-21.8-9
		c-2.8-1.1-4.2-2.9-4.3-5.9c-0.4-7.6-2.7-14.4-7.4-20.4c-4.3-5.4-8.9-10.7-15.4-13.4c-16.8-6.9-33.2-6.7-49,2.9
		c-5.8,3.6-9.9,8.1-11.2,15.1c-0.6,3.4-2.9,4.7-6.4,3.9c-6.3-1.4-12.7-2-19.2-1.3c-3.6,0.4-7.3,1-10.9,1.5
		c-4.4,1.2-8.9,2.3-13.3,3.5c-0.5,0.2-1,0.3-1.5,0.5c-3.3,1.5-6.7,2.9-10,4.6c-5.7,2.9-10.7,6.7-15.3,11.1c-2.3,2.2-4.3,4.7-6.4,7.1
		c-3.6,4.2-6.6,8.9-9.3,13.7c-3.4,6.3-5.9,13-7.8,19.9c-0.9,3.4-1.7,6.9-2.5,10.3c-1.7,5.8-1.4,11.8-1,17.7c0.1,1.3,0.1,2.6,0.2,3.9
		c0.4,3.4,0.7,6.8,1.3,10.2c1.1,6.5,3,12.8,5.2,19c2.2,6.3,5,12.5,8.7,18.1c4.2,6.3,9,12.1,14.5,17.2c3.4,3.2,6.8,6.4,10.5,9.2
		c5.5,4.2,11.6,7.6,17.7,10.9c8.6,4.5,17.7,7.5,27,9.9c7.1,1.8,14.3,3.2,21.6,3.9c4.9,0.4,9.7,0.9,14.7,0.5c4.8-0.4,9.6-0.6,14.4-1
		c4-0.4,8.1-0.8,12.1-1.5c5-0.9,10.1-2,15-3.3c6.5-1.7,12.9-3.8,19.4-5.7c1.4-0.4,2.9-1,4.2-1.7c2.9-1.7,5.8-3.6,8.6-5.4
		c0.9-0.6,1.7-1.3,2.5-1.9c1.3-0.7,2.5-1.4,3.8-1.9c9.2-4.2,17.2-10.3,24.8-16.8c3.5-2.9,6.9-5.9,10.3-8.9c3.5-3.1,7-6.1,10.4-9.2
		c1.5-1.4,2.8-2.9,4.2-4.4c1.3-1.5,2.5-3,3.8-4.6c2-2.4,4.1-4.8,6-7.3c2.6-3.3,4.5-7.2,8.5-9.3c0.2-0.1,0.3-0.5,0.4-0.8
		c1.2,0.2,2.3,0.5,3.5,0.4c0.7-0.1,1.5-0.7,1.9-1.3c0.2-0.3-0.4-1.2-0.6-1.8c-0.1-0.1-0.1-0.3-0.2-0.4c0.4-0.4,0.8-0.9,1.2-1.3
		c2.2-2.2,4-4.7,4.7-7.8c1.4-5.9-0.5-10.5-5.6-13.7C373.7,178.9,373,178.4,372.2,177.8z M278.2,73.2c-1.1,0.4-2.3,0.8-3.4,1.2
		c-0.1,0.2-0.1,0.3-0.2,0.5c0.5,0.3,0.9,0.6,1.4,1s1,0.7,1.4,1.1c4.1,4.1,7.9,8.5,10.8,13.6c3,5.2,4.4,10.8,4.9,16.7
		c0.1,1.2,0.5,1.7,1.6,2.2c5.5,2.1,10.9,4.4,16.3,6.5c0.4,0.2,0.8,0.2,1.3,0.4c-0.2-3-0.4-5.7-0.6-8.5c-0.8-3.3-1.3-6.6-2.4-9.7
		c-2-6.1-5.3-11.4-9.5-16.2C294.1,75.4,287.2,71.8,278.2,73.2z M103.7,38.6c0.1,0.5,0.1,1,0.2,1.5c1.3,6.7,4.6,12.3,9.5,17.1
		c3.4,3.4,7.3,5.6,12.1,6.1s9.7,1.1,14.5,1.6c2.5,0.3,5.1,0.3,7.6,0.7c2.2,0.4,3.3,1.9,3.4,4.1c0,1-0.1,1.9-0.1,2.9
		c0,2.1,0,4.3,0,6.5c1-0.1,2-0.3,3-0.4c1.9-0.1,3.8-0.2,5.7-0.3c3.9-0.2,7.9-0.4,11.8-0.5c0.1,0,0.3,0,0.4,0c0.5,0,1,0,1.5-0.1
		c3.8,0,7.7,0,11.4,0c0-3.5,0-6.7,0-10c0.1-0.6,0-1.2,0.3-1.8c1.4-3.3,1.3-4.4,5.5-4.3c1.2,0,2.4,0,3.6,0c7,0,13.2-2.1,18.7-6.3
		c1.2-1,2.2-2.1,2.8-3.5c2.2-5.3,3.2-10.8,2-16.5c-1.5-7-4.7-12.8-11.2-16.4c-1.8-1-3.7-1.9-5.5-2.9c-4.7-2.5-9.6-2.9-14.8-1.8
		c-5.9,1.2-11.2,3.4-15.1,8.2c-2.6,3.2-5,6.6-7.4,10c-0.9,1.2-1.9,2-3.4,2c-1-0.6-2-1.1-2.8-1.9c-1.1-1-2-2.3-2.9-3.5
		c-2.8-3.5-5.8-6.7-9.5-9.2c-6.2-4.1-13.1-5.3-20.3-5.2c-9.6,0.1-17.2,6-19.8,15.3c-0.1,0.2-0.1,0.3-0.2,0.5
		C103.7,33.3,103.3,35.9,103.7,38.6z M74.1,344.7c3.3,1.2,6.6,2.4,9.8,3.7c10.3,3.2,20.9,4.6,31.7,5.1c7.9,0.3,15.8,0,23.7-1.2
		c10.6-1.6,21-4.1,31.1-7.6c10.6-3.6,21.1-7.5,31.6-11.2c14.5-5.1,29.1-10,44.3-13c6.5-1.3,13-2,19.6-2.2c4.9-0.2,9.7,0.3,14.5,1.1
		c10,1.7,19.4,5.2,28.2,10.2c7.7,4.4,14.9,9.7,22,14.9c2.6,1.9,5.3,3.6,8.6,3.8c3.2,0.2,5.5-0.8,6.5-3.7c0.9-2.4,0.9-4.9,0.1-7.4
		c-1-1.9-1.7-3.9-2.9-5.6c-3.9-5.2-8.9-9.3-14.7-12.3c-10.1-5.2-20.7-8.6-31.9-10.5c-2.3-0.4-4.6-0.6-6.9-1
		c-0.8-0.1-1.5-0.2-2.3-0.3c-3.3-0.2-6.7-0.4-10-0.6c-0.5,0-0.9-0.1-1.4-0.1c-4,0-7.9,0.1-11.9,0.2c-7.7,0.1-15.3,0.8-22.9,2
		c-15.3,2.5-30.4,5.4-45.3,9.7c-13,3.7-26,7.6-39,11.3c-11.9,3.4-24,5.3-36.4,5.5c-5.7,0.1-11.5-0.2-17.2-0.8
		c-6.1-0.6-12.2-1.3-18.1-2.8c-16.6-4.2-31-12.5-42.6-25.2c-5.1-5.6-9.1-11.9-11.4-19.2c-1.5-4.6-2.3-9.3-2.6-14.1
		c-0.4-6.6-0.4-13.3,1.7-19.7c4.3-12.9,12-23.5,23-31.6c4.9-3.7,10.1-7,15.4-10.2c7.9-4.8,16-9.3,25.5-10.2c-0.3-3.1-0.6-6.3-1-9.4
		c0-2,0-4,0-6c-0.9,0-1.5-0.1-2.1,0c-1.9,0.3-3.9,0.6-5.8,0.9c-6.1,1-11.9,2.6-17.4,5.4c-8.3,4.2-15.6,9.7-22.1,16.2
		c-2.7,2.7-5.4,5.6-7.8,8.6c-3,3.8-6,7.6-8.5,11.7c-4.8,7.7-8.1,16-10.5,24.7c-2.1,7.5-3.3,15.2-2.7,23c0.5,6.8,2.4,13.2,5.6,19.3
		c5.1,9.8,11.9,18.4,19.9,26c6.6,6.2,13.6,11.8,21.4,16.5C66.5,340.9,70.4,342.7,74.1,344.7z"/>
	<path class="st1" d="M307.3,79.4c-0.1-0.1-0.2-0.3-0.3-0.4c-0.1-0.2-0.3-0.3-0.4-0.5c-2.6-2.5-5-5.4-7.9-7.5
		c-2.4-1.8-5.3-2.7-8.1-4c-0.4-0.2-0.9-0.3-1.3-0.5c1,0.2,2.1,0.2,3,0.6c2.9,1.3,5.9,2.6,8.6,4.3c3.1,1.9,5.6,4.5,7.8,7.3
		c4.4,5.6,7.4,11.8,9.1,18.7c1,3.9,1.5,8,1.4,12c0,1.3-1,1.8-1.7,2.7c0.1-0.4,0.1-0.8,0.2-1.2c0-0.2,0-0.5,0.1-0.7c0-0.5,0-1,0-1.4
		c0-0.9-0.1-1.8-0.1-2.7c0-0.5-0.1-0.9-0.1-1.4c0-0.3-0.1-0.7-0.1-1s-0.1-0.6-0.1-0.9s-0.1-0.5-0.1-0.8c0-0.2-0.1-0.4-0.1-0.6
		c0.1-0.2,0.2-0.4,0.2-0.6c-0.5-2-1-4-1.6-6c-0.1-0.4-0.5-0.8-0.7-1.1c-0.1-0.2-0.1-0.4-0.2-0.6c-0.6-1.3-1.1-2.7-1.7-4
		c-0.3-0.6-0.6-1.2-0.9-1.8c-0.4-0.7-0.7-1.3-1.1-2c0-0.1-0.1-0.1-0.1-0.2c-0.2-0.3-0.4-0.7-0.6-1c0-0.1-0.1-0.1-0.1-0.2
		c-0.4-0.6-0.7-1.2-1.1-1.7l0,0c-0.2-0.3-0.5-0.6-0.7-1c0-0.1-0.1-0.1-0.1-0.2c-0.1-0.2-0.3-0.4-0.4-0.5l0,0
		C307.7,80,307.5,79.7,307.3,79.4z"/>
	<path class="st2" d="M323.1,265.5c-0.5-1-0.1-1.5,0.7-2.2c3.1-2.6,6-5.3,9.1-8c0.3-0.3,0.6-0.5,0.9-0.7c-1.2,1.5-2.2,3.2-3.6,4.6
		C327.9,261.4,325.5,263.4,323.1,265.5z"/>
	<path class="st1" d="M342.7,244.6c0.8-1,1.6-1.9,2.4-3c0.6-0.9,1.2-2,1.7-3c0.5-0.5,0.9-1,1.4-1.5c1.3-1.1,2.6-2.2,3.9-3.3
		c-0.5,0.7-0.9,1.5-1.5,2.1c-2.3,2.7-4.6,5.4-6.9,8C343.5,244.2,343.1,244.4,342.7,244.6z"/>
	<path class="st1" d="M376.1,172.5c-0.7-0.8-1.4-1.5-2-2.3c-1.5-2.1-3-4.3-4.5-6.5c0.5,0.2,1.2,0.3,1.4,0.7c1.7,2.5,3.3,5.1,5,7.7
		C376.1,172.1,376.1,172.3,376.1,172.5z"/>
	<path class="st1" d="M92.9,180c0,1,0,2,0,3c-2.7,0.1-5.3,0.3-7.9,0.4c0.9-0.3,1.9-0.6,2.8-0.7c1.2-0.2,2.5-0.3,3.7-0.3
		c0.9,0,1.3-0.2,1.2-1.2C92.6,180.8,92.8,180.4,92.9,180z"/>
	<path class="st1" d="M341.3,246.2c0.4-0.5,0.8-0.9,1.2-1.4C342.1,245.3,341.7,245.8,341.3,246.2z"/>
	<path class="st1" d="M99.5,148.1c-0.2,0.5-0.3,0.9-0.5,1.4C99.1,149,99.3,148.5,99.5,148.1z"/>
	<path class="st1" d="M98.7,150.2c-0.1,0.4-0.3,0.8-0.4,1.2C98.5,151,98.6,150.6,98.7,150.2z"/>
	<path class="st1" d="M286.1,65.9c-0.3-0.1-0.6-0.1-1-0.2C285.4,65.8,285.8,65.8,286.1,65.9z"/>
	<path class="st1" d="M93.1,175c0,0.3,0,0.6-0.1,0.9C93.1,175.6,93.1,175.3,93.1,175z"/>
	<path class="st1" d="M287.5,66.1c-0.2-0.1-0.5-0.1-0.7-0.2C287,66,287.3,66.1,287.5,66.1z"/>
	<path class="st1" d="M93.9,169c0,0.2-0.1,0.5-0.1,0.7C93.8,169.4,93.9,169.2,93.9,169z"/>
	<path class="st1" d="M288.7,66.4c-0.2-0.1-0.5-0.1-0.7-0.2C288.2,66.3,288.5,66.3,288.7,66.4z"/>
	<path class="st1" d="M93.4,172.6c0,0.2,0,0.3-0.1,0.5C93.3,172.9,93.4,172.7,93.4,172.6z"/>
	<path class="st1" d="M94.8,164.2c0,0.2-0.1,0.3-0.1,0.5C94.8,164.5,94.8,164.3,94.8,164.2z"/>
	<path class="st1" d="M93.6,170.6c0,0.2,0,0.3-0.1,0.5C93.6,171,93.6,170.8,93.6,170.6z"/>
	<path class="st1" d="M94.3,166.6c0,0.2-0.1,0.3-0.1,0.5C94.3,166.9,94.3,166.7,94.3,166.6z"/>
	<path class="st1" d="M94.6,165.4c0,0.2-0.1,0.3-0.1,0.5C94.5,165.7,94.6,165.5,94.6,165.4z"/>
	<path class="st2" d="M323.3,271.7c0-0.2,0-0.3,0-0.5C323.3,271.4,323.3,271.5,323.3,271.7z"/>
	<path class="st2" d="M323.3,267.4c0-0.2,0-0.3,0-0.5C323.3,267,323.3,267.2,323.3,267.4z"/>
	<path class="st1" d="M339.8,247.9c0.2-0.2,0.3-0.4,0.5-0.5C340.1,247.6,340,247.7,339.8,247.9z"/>
	<path class="st1" d="M97.5,154.1c0,0.2-0.1,0.3-0.1,0.5C97.4,154.4,97.5,154.2,97.5,154.1z"/>
	<path class="st1" d="M96.5,157.4c0,0.2-0.1,0.3-0.1,0.5C96.5,157.7,96.5,157.6,96.5,157.4z"/>
	<path class="st1" d="M95.8,160.1c0,0.2-0.1,0.3-0.1,0.5C95.8,160.4,95.8,160.2,95.8,160.1z"/>
	<path class="st1" d="M277.9,66.2c-0.2,0-0.3,0.1-0.5,0.1C277.6,66.3,277.7,66.2,277.9,66.2z"/>
	<path class="st1" d="M94.1,167.8c0,0.2,0,0.3-0.1,0.5C94.1,168.1,94.1,167.9,94.1,167.8z"/>
	<path class="st1" d="M278.9,66c-0.2,0-0.3,0.1-0.5,0.1C278.6,66,278.7,66,278.9,66z"/>
	<path class="st1" d="M280.1,65.7c-0.2,0-0.3,0.1-0.5,0.1C279.8,65.8,279.9,65.8,280.1,65.7z"/>
	<path class="st1" d="M95.6,161c0,0.2-0.1,0.3-0.1,0.5C95.5,161.3,95.6,161.2,95.6,161z"/>
	<path class="st3" d="M369.6,205.4c-0.1,0.3-0.2,0.7-0.4,0.8c-4,2-5.8,6-8.5,9.3c-2,2.5-4,4.8-6,7.3c-0.4,0.2-0.9,0.3-1.2,0.6
		c-2.8,2.2-5.5,4.5-8.4,6.5c-5.7,4-11.1,8.4-17.2,11.6c-3.1,1.7-6.2,3.5-9.4,5c-4.7,2.1-9.4,3.9-14.2,5.8c-5.1,2-10.1,4.1-15.3,5.9
		c-7.8,2.8-15.8,4.6-24.1,5c-5.4,0.3-10.9,0-16.3-0.2c-4.8-0.2-9.7-0.7-14.5-1.2c-2.8-0.3-5.6-0.6-8.4-1.1
		c-4.4-0.8-8.8-1.7-13.2-2.8c-5.2-1.3-10.3-2.7-15.4-4.4c-6.4-2.3-12.7-4.8-18.9-7.5c-7.8-3.3-15.4-7.2-22.5-11.9
		c-6.1-4-11.6-8.6-16.4-14c-1.8-2-3.4-4.1-4.9-6.3c-2.5-3.6-3.9-7.6-4.6-11.8c-0.6-4.1-1.2-8.2-1.4-12.3c-0.4-6.6,0.6-13,1.9-19.4
		c1.1-5.3,2.2-10.6,3.7-15.8c2.2-7.6,6.4-14.4,10.6-21c3.8-5.9,8.4-11.2,13.4-16.2c2.9-2.8,5.7-5.7,8.5-8.6c2.5-2.5,3-7.1,0.6-9.8
		c-0.2-0.3-0.3-0.6-0.4-1c3.6-0.5,7.2-1.1,10.9-1.5c6.5-0.7,12.8-0.1,19.2,1.3c3.5,0.8,5.8-0.5,6.4-3.9c1.2-6.9,5.3-11.5,11.2-15.1
		c15.9-9.7,32.3-9.9,49-2.9c6.5,2.7,11.1,7.9,15.4,13.4c4.7,6,7.1,12.8,7.4,20.4c0.1,3,1.5,4.8,4.3,5.9c7.3,2.9,14.6,5.9,21.8,9
		c3.6,1.6,7,3.6,10.6,5.4c3,1.5,6.1,2.8,9,4.5c5.8,3.3,10.6,7.8,15.2,12.6c6.5,7,12.7,14.3,18.2,22.1c1.2,1.7,2.3,3.4,3.4,5.1
		c-7.1,4.2-10.9,16.2-5.9,25.2C364.4,202.2,366.5,204.3,369.6,205.4z M291.1,184.8c0.3,0.3,0.6,0.7,1,1c1.7,1.4,3.1,3.1,5,4
		c8.5,4.1,17,4.3,25.2-1c0.4-0.3,1-0.5,1.5-0.5c4.2,0.1,8.3,0.2,12.5,0.3c1,0,2.1-0.1,3.1-0.4c1.2-0.3,1.4-1.5,0.6-2.3
		c-0.4-0.4-0.9-0.7-1.4-0.8c-1.8-0.4-3.6-0.7-5.4-1c-1.5-0.2-3-0.4-4.4-0.5c0-0.3,0-0.3,0-0.4c0.2-0.3,0.4-0.5,0.6-0.8
		c3.5-4.5,5.9-9.3,5.6-15.2c-0.2-4.7-2.2-8.8-4.6-12.6c-5-7.7-12.2-12.4-21.2-14.3c-5.4-1.1-10.2-0.1-14.4,3.5c-3,2.6-6,5.3-8.4,8.5
		c-4.9,6.5-6.7,13.8-3,21.6c0.9,1.9,2,3.8,3,5.7c-4.3-0.5-8.6-1-12.9-1.4c-8.8-0.9-17.6-1.9-26.3-2.8c-6.4-0.7-12.8-1.5-19.2-2.1
		c-5.8-0.5-11.6-0.8-17.5-1.2c-0.5,0-0.9,0.2-1.4,0.2c0,0.2,0,0.3,0,0.5c0.9,0.3,1.8,0.6,2.6,0.8c10.5,2.6,21.3,3.7,32,5.3
		c8.3,1.2,16.7,2.4,25,3.5c7.1,1,14.2,1.8,21.3,2.7c0.3,0,0.6-0.2,0.9-0.3C291.1,184.8,291.1,184.8,291.1,184.8z M242.5,89.9
		c-0.1-0.2-0.2-0.4-0.3-0.6c-2.2-2.7-5.1-4.6-8.3-5.9c-2.2-0.9-4.5-1-6.8-0.1c-3.8,1.5-6.1,4.3-7.2,8.2c-1.5,5.1-0.7,10.1,1.3,14.9
		c4.3,10.1,10.7,18.8,18.5,26.5c0.6,0.6,1.5,1.1,2.3,1.5c1.9,0.9,3.7,0.4,5.1-1.1c0.4-0.5,0.8-1.1,1.2-1.6c0.4-0.4,0.8-0.8,1.2-1.1
		c9.4-5.2,16-13,20.7-22.5c2.4-4.9,3-10.1,1.8-15.4c-1.4-6.3-5.4-10.3-11.6-11.8c-5.9-1.5-11,0.3-14.8,5.1
		C244.5,87.1,243.6,88.4,242.5,89.9z M222,252.5c0.1,0.1,0.1,0.2,0.2,0.4c0.3,0,0.6,0,0.9,0c2.9-0.6,5.9-1,8.8-1.7
		c10.6-2.7,21.1-5.4,31.7-8.2c15.7-4.2,31.3-8.6,46.6-13.9c12-4.2,23.7-9.1,34.7-15.4c1.7-1,3.2-2.1,4.8-3.1
		c0.8-0.5,1.2-1.3,0.8-2.2c-0.4-1-1.3-1-2.3-0.8c-0.7,0.2-1.4,0.3-2.1,0.6c-2.7,1.2-5.5,2.4-8.2,3.7c-7.6,3.4-15.1,6.9-22.7,10.2
		c-10.1,4.4-20.6,7.7-31.2,10.9c-12.7,3.8-25.3,7.6-38,11.5c-7.7,2.4-15.3,4.9-22.9,7.4C222.8,251.9,222.4,252.2,222,252.5z
		 M207.8,209.7c0,0.2,0,0.3,0,0.5c0.4,0.1,0.7,0.2,1.1,0.2c3.7,0.1,7.4,0.3,11,0.2c8.4-0.2,16.8-0.5,25.2-0.8
		c9.1-0.4,18.3-0.7,27.4-1.2c10.1-0.6,20.2-1.5,30.2-2.4s19.9-2.2,29.7-4.4c2.8-0.6,5.5-1.6,8.3-2.4c0.8-0.3,1.3-1,1.1-1.9
		c-0.3-1-1.1-0.9-1.9-0.9c-1.4,0.1-2.8,0.3-4.2,0.5c-13.5,1.8-27,3.7-40.5,5.3c-8.2,1-16.5,1.6-24.7,2.3c-6.1,0.5-12.1,0.9-18.2,1.3
		c-8.1,0.5-16.2,1-24.3,1.6c-5.8,0.4-11.5,1-17.3,1.6C209.7,209.2,208.8,209.5,207.8,209.7z M150.4,176.7c0.1,0,0.2,0.1,0.3,0.1
		c0,0.2,0,0.5,0,0.7c0.1,0.5,0.3,1,0.4,1.5c0.4-0.3,1-0.6,1.2-1c1.3-2.6,2.6-5.1,3.7-7.8c2.8-7.3,5.2-14.7,8.2-21.9
		c4.3-10.4,11-19.1,19.8-26.3c3.1-2.5,6-5.1,9-7.7c0.6-0.6,1.2-1.3,1.6-2.1c0.5-0.9,0.6-2-0.2-2.6c-0.6-0.5-1.8-0.9-2.5-0.6
		c-1.7,0.5-3.3,1.2-4.8,2.2c-12.5,8-21.4,18.9-27.3,32.5c-3.1,7.1-5.1,14.6-6.9,22C152,169.3,151.2,173,150.4,176.7z M208.8,241.2
		c0.1-0.2,0.1-0.3,0.2-0.5c-0.4-0.3-0.7-0.5-1.1-0.8c-5.5-3-11.5-4.8-17.4-6.9c-10-3.5-20.1-6.8-29.6-11.8c-0.2-0.1-0.5-0.3-0.7-0.3
		c-0.5,0.1-1.3,0-1.6,0.4c-0.3,0.3-0.3,1.2-0.1,1.6c0.5,0.7,1.1,1.5,1.9,1.9c2.6,1.4,5.2,2.9,7.9,4c11.6,4.7,23.7,8.1,35.8,11.5
		C205.7,240.9,207.3,241,208.8,241.2z M150.5,198c1.9,0,3.5-1.5,3.5-3.5c0-1.9-1.6-3.6-3.5-3.7c-1.9,0-3.5,1.7-3.5,3.6
		C147,196.3,148.6,198,150.5,198z M149.5,207.9c1.7,0,3.1-1.6,3.1-3.3s-1.4-3.1-3.1-3.1c-1.7,0-3.1,1.6-3,3.3
		C146.5,206.5,147.8,207.9,149.5,207.9z"/>
	<path class="st2" d="M166.8,98c0.1,0.3,0.2,0.7,0.4,1c2.4,2.8,1.8,7.3-0.6,9.8c-2.8,2.9-5.7,5.7-8.5,8.6c-5,5-9.6,10.2-13.4,16.2
		c-4.2,6.6-8.4,13.3-10.6,21c-1.5,5.2-2.6,10.5-3.7,15.8c-1.3,6.4-2.3,12.9-1.9,19.4c0.2,4.1,0.8,8.2,1.4,12.3
		c0.7,4.2,2.2,8.3,4.6,11.8c1.5,2.2,3.1,4.3,4.9,6.3c4.8,5.4,10.3,10.1,16.4,14c7.1,4.7,14.7,8.6,22.5,11.9
		c6.2,2.6,12.5,5.2,18.9,7.5c5,1.8,10.2,3.1,15.4,4.4c4.3,1.1,8.8,2,13.2,2.8c2.8,0.5,5.6,0.8,8.4,1.1c4.8,0.5,9.7,0.9,14.5,1.2
		c5.4,0.2,10.9,0.5,16.3,0.2c8.3-0.4,16.3-2.3,24.1-5c5.1-1.8,10.2-3.9,15.3-5.9c4.7-1.9,9.5-3.7,14.2-5.8c3.2-1.4,6.3-3.3,9.4-5
		c6.2-3.3,11.6-7.6,17.2-11.6c2.9-2,5.6-4.4,8.4-6.5c0.4-0.3,0.8-0.4,1.2-0.6c-1.3,1.5-2.5,3.1-3.8,4.6s-2.7,3.1-4.2,4.4
		c-3.4,3.1-6.9,6.2-10.4,9.2c-3.4,3-6.8,6-10.3,8.9c-7.6,6.5-15.6,12.5-24.8,16.8c-1.3,0.6-2.5,1.3-3.8,1.9c-0.2,0-0.3,0-0.5,0.1
		c-4.1,2.1-8.5,3.4-12.9,4.7c-3.9,1.1-7.7,2.1-11.8,2.4c-2.2,0.2-4.4,0.5-6.6,0.8c-3.6,0.5-7.2,1.1-10.9,1.5c-3,0.4-6.1,0.7-9.1,1
		c-4.5,0.5-8.9,1.1-13.4,1.3c-4.4,0.2-8.8,0-13.2-0.2c-2.7-0.1-5.5-0.4-8.2-0.8c-3.3-0.5-6.6-1.2-10-1.8c-5.9-1.2-11.7-2.9-17.1-5.6
		c-6.2-3.2-12.4-6.3-18.5-9.6c-4.3-2.3-8.5-4.8-12.5-7.5c-7.9-5.4-15.5-11.2-21.6-18.5c-2.5-3-4.9-6.2-6.8-9.6
		c-4.7-8.6-8.1-17.7-10.3-27.2c-0.8-3.4-1.4-6.9-1.7-10.3c-0.3-3,0.1-6.1,0.1-9.2c0-5,1.1-9.9,2.2-14.7c1.4-6.4,3.2-12.6,6.1-18.4
		c2.6-5.1,5.8-9.8,9.4-14.3c3.6-4.5,7.1-9,11.4-12.8c3-2.7,5.9-5.6,8.6-8.7c2.4-2.7,5.3-5.4,3.3-9.7C158,100.3,162.4,99.1,166.8,98z
		"/>
	<path class="st4" d="M289.6,308c2.3,0.3,4.6,0.6,6.9,1c11.2,1.9,21.8,5.4,31.9,10.5c5.8,3,10.8,7,14.7,12.3c1.2,1.7,2,3.7,2.9,5.6
		c-1.4-0.3-2.8-0.2-4,0.7c-2.3,1.6-4.7,1.4-7.2,0.8c-3.7-0.9-6.6-3.2-9.5-5.3c-4.8-3.5-9.4-7.3-14.5-10.4c-4.9-3-9.9-5.6-15.5-6.8
		c-3.7-0.8-7.4-1.6-11.1-2.5c-7-1.7-14.2-2.1-21.4-2c-5.1,0.1-10.1,0.9-15.1,1.3c-1.5,0.1-3.1,0.2-4.6,0.6c-3.6,1-7.3,2-10.9,3.3
		c-4.7,1.6-9.4,3.2-13.9,5.2c-8.6,3.7-17.4,7.1-26.3,10c-7.7,2.6-15.4,5.2-23.3,7.4c-9.4,2.6-18.8,5.5-28.6,6.7
		c-4.5,0.5-9,1-13.5,0.7s-8.9-0.3-13.4-0.5c-3.4-0.2-6.8-0.7-10.2-1.1c-2.9-0.3-5.8-0.7-8.6-1.1c-2.4-0.3-4.9-0.6-7.3-1.2
		c-2.1-0.5-4-1.3-6-2c-8.4-2.7-16-6.8-23.3-11.6c-5.6-3.6-10.8-7.8-15.2-12.8c-2.6-2.9-5.4-5.7-8-8.5c-3.7-3.9-6.4-8.5-9-13.1
		c-1.9-3.3-2.9-6.8-3.8-10.4c-1.3-5.2-2.9-10.3-2.1-15.7c0.5-3.2,0.9-6.5,1.8-9.6c1.2-3.9,3-7.6,4.5-11.4c1.4-3.5,3.1-6.9,5.1-10.1
		c2.4-3.7,4.4-7.7,6.8-11.4c3.1-4.5,6.3-8.9,9.8-13.1c2.3-2.8,4.9-5.5,7.7-7.9c5.5-4.6,12.1-7.5,19-9.3c6.1-1.5,12.4-2.4,18.6-3.6
		c0.3,3.2,0.6,6.3,1,9.4c-9.6,0.9-17.7,5.3-25.5,10.2c-5.3,3.2-10.4,6.5-15.4,10.2c-10.9,8.1-18.6,18.7-23,31.6
		c-2.1,6.4-2.1,13.1-1.7,19.7c0.3,4.8,1.1,9.5,2.6,14.1c2.3,7.3,6.3,13.6,11.4,19.2c11.6,12.7,26,21,42.6,25.2
		c5.9,1.5,12,2.2,18.1,2.8c5.7,0.6,11.5,0.8,17.2,0.8c12.4-0.2,24.5-2.1,36.4-5.5c13-3.7,26-7.6,39-11.3c14.9-4.2,30-7.2,45.3-9.7
		c7.6-1.2,15.2-1.9,22.9-2c4-0.1,7.9-0.1,11.9-0.2c0.5,0,0.9,0.1,1.4,0.1C281.4,308,285.5,308.2,289.6,308z"/>
	<path class="st5" d="M153.5,101.5c2,4.2-0.9,7-3.3,9.7c-2.7,3-5.6,5.9-8.6,8.7c-4.3,3.9-7.8,8.4-11.4,12.8
		c-3.6,4.5-6.8,9.1-9.4,14.3c-2.9,5.8-4.7,12.1-6.1,18.4c-1.1,4.9-2.2,9.7-2.2,14.7c0,3.1-0.4,6.2-0.1,9.2c0.3,3.5,0.9,6.9,1.7,10.3
		c2.2,9.5,5.6,18.7,10.3,27.2c1.9,3.4,4.3,6.6,6.8,9.6c6.2,7.3,13.8,13.1,21.6,18.5c4,2.7,8.2,5.2,12.5,7.5
		c6.1,3.3,12.3,6.5,18.5,9.6c5.4,2.8,11.2,4.4,17.1,5.6c3.3,0.7,6.6,1.4,10,1.8c2.7,0.4,5.5,0.7,8.2,0.8c4.4,0.2,8.8,0.4,13.2,0.2
		c4.5-0.2,8.9-0.8,13.4-1.3c3-0.3,6.1-0.6,9.1-1c3.6-0.5,7.2-1,10.9-1.5c2.2-0.3,4.4-0.7,6.6-0.8c4-0.3,7.9-1.3,11.8-2.4
		c4.4-1.3,8.8-2.6,12.9-4.7c0.1-0.1,0.3,0,0.5-0.1c-0.8,0.6-1.6,1.3-2.5,1.9c-2.8,1.8-5.7,3.7-8.6,5.4c-1.3,0.8-2.7,1.3-4.2,1.7
		c-6.4,2-12.9,4-19.4,5.7c-4.9,1.3-10,2.4-15,3.3c-4,0.7-8,1.2-12.1,1.5c-4.8,0.4-9.6,0.6-14.4,1c-4.9,0.4-9.8-0.1-14.7-0.5
		c-7.3-0.6-14.5-2.1-21.6-3.9c-9.3-2.4-18.5-5.4-27-9.9c-6.1-3.2-12.2-6.6-17.7-10.9c-3.7-2.8-7.1-6-10.5-9.2
		c-5.5-5.1-10.3-10.9-14.5-17.2c-3.7-5.6-6.4-11.7-8.7-18.1c-2.2-6.2-4.1-12.5-5.2-19c-0.6-3.4-0.9-6.8-1.3-10.2
		c-0.2-1.3-0.2-2.6-0.2-3.9c0.1-0.2,0.2-0.4,0.2-0.7c0.1-2.7,0.1-5.4,0.3-8.1c0.1-1.7,0.3-3.3,0.4-5c0.1-1.3,0.1-2.7,0.1-4
		c0.8-3.4,1.6-6.9,2.5-10.3c1.8-6.9,4.3-13.6,7.8-19.9c2.6-4.9,5.7-9.5,9.3-13.7c2.1-2.4,4.1-4.9,6.4-7.1c4.6-4.4,9.7-8.2,15.3-11.1
		c3.2-1.7,6.6-3.1,10-4.6C152.5,101.7,153,101.6,153.5,101.5z"/>
	<path class="st2" d="M93.1,192.5c-6.2,1.2-12.5,2.1-18.6,3.6c-6.9,1.7-13.5,4.7-19,9.3c-2.8,2.3-5.4,5-7.7,7.9
		c-3.4,4.2-6.7,8.6-9.8,13.1c-2.5,3.7-4.5,7.7-6.8,11.4c-2.1,3.2-3.7,6.6-5.1,10.1c-1.5,3.8-3.3,7.5-4.5,11.4
		c-1,3.1-1.3,6.4-1.8,9.6c-0.8,5.4,0.8,10.6,2.1,15.7c0.9,3.6,1.9,7.2,3.8,10.4c2.6,4.6,5.4,9.2,9,13.1c2.7,2.9,5.4,5.6,8,8.5
		c4.5,5,9.7,9.2,15.2,12.8c7.3,4.8,14.9,8.9,23.3,11.6c2,0.6,4,1.5,6,2c2.4,0.5,4.8,0.8,7.3,1.2c2.9,0.4,5.8,0.7,8.6,1.1
		c3.4,0.4,6.8,0.9,10.2,1.1c4.5,0.3,8.9,0.2,13.4,0.5c4.6,0.3,9-0.2,13.5-0.7c9.8-1.1,19.2-4,28.6-6.7c7.8-2.2,15.5-4.8,23.3-7.4
		c8.9-3,17.6-6.3,26.3-10c4.5-1.9,9.2-3.6,13.9-5.2c3.6-1.2,7.2-2.3,10.9-3.3c1.5-0.4,3.1-0.5,4.6-0.6c5-0.4,10-1.3,15.1-1.3
		c7.2-0.1,14.4,0.3,21.4,2c3.7,0.9,7.4,1.7,11.1,2.5c5.6,1.3,10.6,3.9,15.5,6.8c5.1,3.1,9.7,6.9,14.5,10.4c2.9,2.2,5.9,4.4,9.5,5.3
		c2.5,0.6,4.9,0.8,7.2-0.8c1.2-0.8,2.6-0.9,4-0.7c0.9,2.5,0.8,5-0.1,7.4c-1,2.9-3.3,3.9-6.5,3.7c-3.3-0.3-6.1-2-8.6-3.8
		c-7.2-5.2-14.3-10.4-22-14.9c-8.8-5.1-18.2-8.6-28.2-10.2c-4.8-0.8-9.7-1.3-14.5-1.1c-6.6,0.2-13.1,0.9-19.6,2.2
		c-15.2,3-29.8,7.9-44.3,13c-10.5,3.7-21,7.6-31.6,11.2c-10.1,3.4-20.5,6-31.1,7.6c-7.8,1.2-15.7,1.5-23.7,1.2
		c-10.8-0.5-21.4-1.9-31.7-5.1c-0.3-0.3-0.6-0.7-0.9-0.9c-2.6-1-5.2-1.9-7.9-2.8c-0.3-0.1-0.7,0-1.1,0c-3.7-2-7.6-3.8-11.2-5.9
		c-7.8-4.6-14.8-10.2-21.4-16.5c-8-7.6-14.9-16.2-19.9-26c-3.1-6-5.1-12.5-5.6-19.3c-0.6-7.9,0.6-15.5,2.7-23
		c2.4-8.7,5.8-17,10.5-24.7c2.5-4.1,5.5-7.9,8.5-11.7c2.4-3,5.1-5.8,7.8-8.6c6.6-6.5,13.9-12,22.1-16.2c5.5-2.8,11.4-4.4,17.4-5.4
		c1.9-0.3,3.9-0.6,5.8-0.9c0.6-0.1,1.2,0,2.1,0C93.1,188.5,93.1,190.5,93.1,192.5z"/>
	<path class="st6" d="M173.3,77.9c-0.5,0-1,0-1.5,0.1c-0.1,0-0.3,0-0.4,0c-3.9,0.2-7.9,0.4-11.8,0.5c0-1.4,0-2.9,0-4.3
		c0.1-3.8-0.1-7.6-1-11.4c-0.6-2.5-2.1-4.4-4.8-4.8c-6.2-0.9-12.3-1.7-18.5-2.3c-3.7-0.4-7.3-0.5-10.7-2.3c-2.9-1.5-5.5-3.2-7.4-5.9
		c-3-4.2-3.7-9.1-3.5-14.1c0.1-1.4,1-2.7,2.4-3.5c-0.3,1.4-0.7,2.7-0.9,4.1c-0.6,4.6,0,9.1,3.4,12.4c5.7,5.4,12.5,8.1,20.5,6.1
		c2.3,0.1,2.3,0.1,2.6-1.6c6.2-3.7,8.6-9,7-15.7c-0.2-1-0.7-2-1-3c0.3,0.1,0.6,0.2,0.8,0.4c2.3,1.5,4.5,3.1,6.8,4.6
		c1.2,0.8,2.6,1.2,4,0.5c1.2-0.6,0.9-1.9,0.9-3c1.5,0,2.5-0.8,3.4-2c2.4-3.4,4.8-6.8,7.4-10c3.8-4.8,9.2-6.9,15.1-8.2
		c5.2-1.1,10.1-0.7,14.8,1.8c1.8,1,3.7,1.8,5.5,2.9c6.4,3.6,9.7,9.4,11.2,16.4c1.2,5.7,0.2,11.2-2,16.5c-0.6,1.5-1.5,2.6-2.8,3.5
		c-5.5,4.2-11.8,6.4-18.7,6.3c-1.2,0-2.4,0-3.6,0c-4.2-0.1-4.1,1-5.5,4.3c-0.2,0.5-0.2,1.2-0.3,1.8c-0.8,2.8-1.8,5.6-2.5,8.4
		c-0.3,1-0.7,1.2-1.6,1.2C178.2,77.6,175.7,77.8,173.3,77.9z M206,45.6c0.1-0.1,0.1-0.2,0.2-0.2c0.4-0.7,0.8-1.4,1.2-2.1
		c4.2-7.7,1.3-17.2-6.3-20.6c-3.2-1.4-6.5-2.1-10-1.8c-9.1,0.6-16.6,8.9-16,17.7c0.4,5.7,3.3,9.5,8.8,11.3c0.2,0.1,0.4,0.1,0.6,0.2
		c1.9,1.4,4.1,1.7,6.3,2c0.5,0.2,1,0.5,1.5,0.5c2.1-0.4,4.2-0.8,6.4-1.3c1.1-0.3,2.3-0.5,3.3-0.8C203.9,49.5,205.4,48,206,45.6
		C205.9,45.6,206,45.6,206,45.6z M210,27.8c-0.2,0-0.4,0.1-0.6,0.1c0,1.3-0.1,2.6-0.1,3.8c0.2,3.5,0.7,7,0.8,10.6
		c0.1,3.1-0.8,6-2.4,8.6c-0.7,1.2-1.4,2.4-1.9,3.7c-0.2,0.4,0,1.2,0.3,1.5s1.1,0.2,1.5,0.1c0.6-0.2,1.1-0.6,1.6-1.1
		c2.9-2.8,4.1-6.3,4.3-10.2c0.3-5.3-1.2-10.4-2.7-15.5C210.7,28.9,210.3,28.3,210,27.8z M198.7,19c0,1.2,0.9,2.1,2,2
		s1.9-0.9,1.9-2.2c0-1.1-0.9-1.9-2-1.9C199.4,17,198.7,17.8,198.7,19z M207,21.1c-1.2,0-1.6,0.4-1.6,1.4c0,1.1,0.6,1.7,1.5,1.7
		c1,0,1.4-0.5,1.4-1.6C208.3,21.6,207.7,21.1,207,21.1z"/>
	<path class="st7" d="M160.3,34.6c0,1.1,0.3,2.4-0.9,3c-1.4,0.7-2.8,0.3-4-0.5c-2.3-1.5-4.6-3-6.8-4.6c-0.3-0.2-0.6-0.3-0.8-0.4
		c-2.5-4.7-6.4-7.8-11.3-9.8c-7.9-3.3-16.7-1.5-20.3,7.6c-1.4,0.8-2.3,2-2.4,3.5c-0.3,5,0.5,9.9,3.5,14.1c1.9,2.7,4.5,4.4,7.4,5.9
		c3.4,1.7,7,1.9,10.7,2.3c6.2,0.6,12.4,1.5,18.5,2.3c2.7,0.4,4.1,2.2,4.8,4.8c0.9,3.7,1,7.6,1,11.4c0,1.4,0,2.9,0,4.3
		c-1.9,0.1-3.8,0.2-5.7,0.3c0-3.3,0.1-6.6,0-9.8c-0.1-2.8-0.6-5.6-3.4-6.9c-1.7-0.8-3.6-1.1-5.5-1.4c-2.3-0.4-4.7-0.5-7.1-0.9
		c-4-0.6-7.8-1.7-11.6-3.2c-3.8-1.5-7.6-3.1-10.5-6.3c-4.5-4.9-6-10.6-5-17.1c0.3-1.8,0.9-3.4,2.1-4.7c1.2-1.4,2.6-2.7,3.8-4.1
		c0.9-1,1.8-1.9,2.5-3c0.4-0.6,0.4-1.5,0.6-2.3c-0.8,0-1.8-0.2-2.5,0.2c-1.9,1.1-3.8,2.3-5.6,3.6c-2.5,1.8-4.8,3.8-6.2,6.7
		c-0.1,0.2-0.5,0.4-0.7,0.5c2.6-9.3,10.2-15.2,19.8-15.3c7.2-0.1,14.2,1.1,20.3,5.2c3.7,2.5,6.8,5.7,9.5,9.2
		c0.9,1.2,1.8,2.4,2.9,3.5C158.3,33.6,159.4,34,160.3,34.6z"/>
	<path class="st8" d="M104.9,30.3c0.2-0.2,0.6-0.3,0.7-0.5c1.4-2.9,3.7-4.9,6.2-6.7c1.8-1.3,3.7-2.6,5.6-3.6
		c0.7-0.4,1.6-0.1,2.5-0.2c-0.2,0.8-0.2,1.7-0.6,2.3c-0.7,1.1-1.6,2.1-2.5,3c-1.3,1.4-2.6,2.7-3.8,4.1c-1.2,1.3-1.9,2.9-2.1,4.7
		c-1,6.5,0.5,12.2,5,17.1c2.9,3.1,6.6,4.7,10.5,6.3c3.8,1.5,7.6,2.6,11.6,3.2c2.3,0.4,4.7,0.5,7.1,0.9c1.9,0.3,3.8,0.6,5.5,1.4
		c2.8,1.3,3.3,4.2,3.4,6.9c0.1,3.3,0,6.6,0,9.8c-1,0.1-2,0.3-3,0.4c0-2.2,0-4.4,0-6.5c0-1,0.1-1.9,0.1-2.9c0-2.3-1.1-3.8-3.4-4.1
		c-2.5-0.4-5.1-0.5-7.6-0.7c-4.8-0.5-9.7-1.1-14.5-1.6s-8.7-2.8-12.1-6.1c-4.9-4.8-8.2-10.4-9.5-17.1c-0.1-0.5-0.1-1-0.2-1.5
		c0.4-2.6,0.7-5.1,1.1-7.7c0.1,0,0.2-0.1,0.2-0.1c-0.1,0-0.1,0-0.2,0h-0.1C104.7,30.6,104.8,30.4,104.9,30.3z"/>
	<path class="st9" d="M278.2,73.2c9-1.4,15.9,2.2,21.7,8.7c4.2,4.8,7.5,10.2,9.5,16.2c1,3.2,1.6,6.5,2.4,9.7
		c-4.4-1.1-8.8-2.2-13.2-3.3c-1.2-0.3-1.7-1-2.1-2c-1.6-4.4-3.2-8.8-5-13c-2.6-6-5.8-11.6-11.8-15C279,74.3,278.6,73.7,278.2,73.2z"
		/>
	<path class="st10" d="M372.2,177.8c0.7,0.5,1.4,1.1,2.2,1.6c5.1,3.2,7,7.8,5.6,13.7c-0.7,3.1-2.5,5.6-4.7,7.8
		c-0.4,0.4-0.8,0.9-1.2,1.3c-2.8,0.5-6.7-1.6-8.3-4.4c-3.6-6.1-0.4-16.3,5.7-20C371.7,177.8,372,177.9,372.2,177.8z"/>
	<path class="st11" d="M165.8,82.2c3.5-0.2,6.9-0.3,10.4-0.5c2.6-0.1,5.2-0.2,7.8-0.3c0.2,0,0.4,0,0.6,0.1c0,2.4,0,4.7,0,7.2
		C172.7,88.6,161.3,91,150,95c0.2-4.1,0.3-7.9,0.5-11.9c1.1-0.1,2.1-0.1,3.1-0.2c-0.1,1.2-0.2,2.3-0.3,3.7c0.7-0.3,1.2-0.4,1.7-0.6
		c3.2-1.1,6.5-2.2,9.7-3.3C165.1,82.5,165.5,82.3,165.8,82.2z"/>
	<path class="st12" d="M278.2,73.2c0.5,0.5,0.8,1.1,1.4,1.4c6,3.4,9.2,9,11.8,15c1.8,4.3,3.4,8.7,5,13c0.4,1,1,1.7,2.1,2
		c4.4,1.1,8.8,2.2,13.2,3.3c0.2,2.8,0.4,5.5,0.6,8.5c-0.6-0.2-1-0.2-1.3-0.4c-5.4-2.2-10.8-4.4-16.3-6.5c-1.1-0.4-1.5-1-1.6-2.2
		c-0.5-5.9-1.9-11.5-4.9-16.7c-2.9-5.1-6.7-9.5-10.8-13.6c-0.4-0.4-0.9-0.8-1.4-1.1c-0.4-0.3-0.9-0.6-1.4-1c0.1-0.2,0.1-0.3,0.2-0.5
		C275.9,74,277.1,73.6,278.2,73.2z"/>
	<path class="st13" d="M372.2,177.8c-0.2,0-0.5,0-0.7,0.1c-6.1,3.7-9.3,13.9-5.7,20c1.6,2.8,5.5,4.9,8.3,4.4
		c0.1,0.1,0.1,0.3,0.2,0.4c0.2,0.6,0.9,1.4,0.6,1.8c-0.4,0.6-1.2,1.3-1.9,1.3c-1.1,0.1-2.3-0.2-3.5-0.4c-3.1-1.1-5.1-3.2-6.7-6
		c-5-9-1.2-20.9,5.9-25.2c1-0.3,1.9-0.8,2.9-0.9c0.6-0.1,1.4,0.2,1.8,0.7c0.3,0.3,0.2,1.2,0,1.7
		C373.2,176.5,372.7,177.1,372.2,177.8z"/>
	<path class="st7" d="M165.8,82.2c-0.4,0.2-0.7,0.3-1.1,0.5c-3.2,1.1-6.5,2.2-9.7,3.3c-0.5,0.2-1,0.3-1.7,0.6
		c0.1-1.4,0.2-2.6,0.3-3.7c2.5-0.2,5.1-0.3,7.6-0.5C162.7,82.3,164.3,82.2,165.8,82.2z"/>
	<path class="st14" d="M173.3,77.9c2.4-0.1,4.9-0.3,7.3-0.4c0.9,0,1.4-0.2,1.6-1.2c0.7-2.8,1.6-5.6,2.5-8.4c0,3.3,0,6.5,0,10
		C181,77.9,177.1,77.9,173.3,77.9z"/>
	<path class="st9" d="M100.8,168.8c0,1.3,0,2.7-0.1,4c-0.1,1.7-0.3,3.3-0.4,5c-0.1,2.7-0.2,5.4-0.3,8.1c0,0.2-0.1,0.4-0.2,0.7
		C99.4,180.5,99.1,174.6,100.8,168.8z"/>
	<path class="st1" d="M289.6,308c-4.2,0.3-8.3,0-12.4-0.9c3.3,0.2,6.7,0.4,10,0.6C288.1,307.7,288.9,307.9,289.6,308z"/>
	<path class="st9" d="M74.1,344.7c0.4,0,0.7-0.1,1.1,0c2.6,0.9,5.3,1.8,7.9,2.8c0.4,0.1,0.6,0.6,0.9,0.9
		C80.7,347.2,77.4,345.9,74.1,344.7z"/>
	<path class="st3" d="M315,93.5c0.2,0.4,0.6,0.7,0.7,1.1c0.6,2,1.1,4,1.6,6c0,0.2-0.1,0.4-0.2,0.6c-0.3-1-0.6-2-0.8-3.1
		C315.8,96.7,315.4,95.1,315,93.5z"/>
	<path class="st15" d="M104.7,30.9c-0.4,2.6-0.7,5.1-1.1,7.7c-0.4-2.7,0-5.3,1-7.9h0.1C104.7,30.8,104.7,30.9,104.7,30.9z"/>
	<path class="st3" d="M313.1,89c0.6,1.3,1.1,2.7,1.7,4C314.2,91.6,313.7,90.3,313.1,89z"/>
	<path class="st3" d="M317.7,106c0,0.9,0.1,1.8,0.1,2.7C317.8,107.8,317.8,106.9,317.7,106z"/>
	<path class="st3" d="M311.1,85.1c0.4,0.7,0.7,1.3,1.1,2C311.8,86.5,311.5,85.8,311.1,85.1z"/>
	<path class="st4" d="M348.2,237.1c-0.5,0.5-0.9,1-1.4,1.5C347.3,238.1,347.8,237.6,348.2,237.1z"/>
	<path class="st3" d="M309.2,82c0.4,0.6,0.7,1.2,1.1,1.7C309.9,83.2,309.6,82.6,309.2,82z"/>
	<path class="st3" d="M317.5,103.6c0,0.3,0.1,0.7,0.1,1C317.5,104.3,317.5,103.9,317.5,103.6z"/>
	<path class="st3" d="M310.4,83.9c0.2,0.3,0.4,0.7,0.6,1C310.8,84.6,310.6,84.3,310.4,83.9z"/>
	<path class="st3" d="M308.5,81.1c0.2,0.3,0.5,0.6,0.7,1C308.9,81.7,308.7,81.4,308.5,81.1z"/>
	<path class="st3" d="M307.3,79.4c0.2,0.3,0.5,0.6,0.7,0.9C307.7,80,307.5,79.7,307.3,79.4z"/>
	<path class="st3" d="M317.8,110.2c0,0.2,0,0.5-0.1,0.7C317.8,110.6,317.8,110.4,317.8,110.2z"/>
	<path class="st3" d="M317.2,101.9c0,0.3,0.1,0.5,0.1,0.8C317.3,102.4,317.3,102.2,317.2,101.9z"/>
	<path class="st3" d="M306.5,78.4c0.1,0.2,0.3,0.3,0.4,0.5C306.8,78.8,306.7,78.6,306.5,78.4z"/>
	<path class="st14" d="M171.4,78c0.1,0,0.3,0,0.4,0C171.7,78,171.5,78,171.4,78z"/>
	<path class="st3" d="M308,80.3c0.1,0.2,0.3,0.4,0.4,0.5C308.3,80.7,308.1,80.5,308,80.3z"/>
	<path class="st1" d="M291,184.9c-0.3,0.1-0.6,0.4-0.9,0.3c-7.1-0.9-14.2-1.8-21.3-2.7c-8.4-1.1-16.7-2.3-25-3.5
		c-10.7-1.6-21.5-2.7-32-5.3c-0.9-0.2-1.8-0.5-2.6-0.8c0-0.2,0-0.3,0-0.5c0.5-0.1,0.9-0.3,1.4-0.2c5.8,0.4,11.6,0.7,17.5,1.2
		c6.4,0.6,12.8,1.4,19.2,2.1c8.8,0.9,17.6,1.9,26.3,2.8c4.3,0.5,8.6,1,12.9,1.4c-1-2-2.1-3.8-3-5.7c-3.7-7.8-1.9-15.1,3-21.6
		c2.4-3.2,5.4-5.9,8.4-8.5c4.1-3.5,8.9-4.6,14.4-3.5c9,1.9,16.2,6.6,21.2,14.3c2.5,3.8,4.4,7.9,4.6,12.6c0.3,5.8-2.1,10.7-5.6,15.2
		c-0.2,0.3-0.4,0.5-0.6,0.8c0,0.1,0,0.2,0,0.4c1.5,0.2,3,0.3,4.4,0.5c1.8,0.3,3.6,0.6,5.4,1c0.5,0.1,1,0.4,1.4,0.8
		c0.9,0.8,0.6,2-0.6,2.3c-1,0.2-2.1,0.4-3.1,0.4c-4.2-0.1-8.3-0.2-12.5-0.3c-0.5,0-1.1,0.2-1.5,0.5c-8.2,5.3-16.7,5.1-25.2,1
		c-1.9-0.9-3.4-2.6-5-4c-0.4-0.3-0.7-0.7-1-1c-0.1-0.1-0.1-0.2-0.2-0.3s-0.1-0.2-0.2-0.3s-0.2-0.2-0.2-0.3c-0.1-0.1-0.2-0.2-0.2-0.3
		c-0.2-0.2-0.3-0.3-0.5-0.5c-0.1-0.1-0.1-0.2-0.2-0.2c-0.1-0.1-0.2-0.3-0.4-0.4c-0.1-0.1-0.2-0.2-0.2-0.2c-0.1,0-0.3-0.1-0.4-0.1
		c0.1,0.1,0.2,0.2,0.3,0.2c0.1,0.1,0.1,0.2,0.2,0.3s0.2,0.3,0.3,0.4c0.1,0.1,0.1,0.2,0.2,0.3c0.2,0.2,0.3,0.3,0.5,0.5
		c0.1,0.1,0.2,0.2,0.2,0.2c0.1,0.1,0.2,0.2,0.2,0.2c0.1,0.1,0.2,0.2,0.3,0.2C290.9,184.7,291,184.8,291,184.9z M328,166.6
		c0-3.5-1-6.7-3.4-9.3c-3.5-3.7-7.5-6.7-12.3-8.5c-1.9-0.7-4.1-1.2-6.1-1.1c-6.8,0.5-14.3,6.9-15.4,13.2c-0.3,1.7-0.8,3.4-1,5.2
		c-1.2,7.6,2.8,15.1,9.4,17.6c5.8,2.2,11.6,2.5,17.3-0.5C323.3,179.8,327.4,174.4,328,166.6z"/>
	<path class="st13" d="M242.5,89.9c1.1-1.5,2-2.8,3.1-4.1c3.9-4.8,8.9-6.6,14.8-5.1c6.1,1.6,10.2,5.5,11.6,11.8
		c1.2,5.3,0.6,10.5-1.8,15.4c-4.6,9.5-11.3,17.3-20.7,22.5c-0.5,0.3-0.9,0.7-1.2,1.1c-0.4,0.5-0.8,1.1-1.2,1.6
		c-1.4,1.6-3.2,2-5.1,1.1c-0.8-0.4-1.6-0.9-2.3-1.5c-7.8-7.7-14.2-16.3-18.5-26.5c-2-4.8-2.7-9.8-1.3-14.9c1.1-3.8,3.4-6.7,7.2-8.2
		c2.3-0.9,4.5-0.8,6.8,0.1c3.2,1.3,6.1,3.2,8.3,5.9C242.2,89.5,242.3,89.7,242.5,89.9z M267.5,97.4c0.1,0,0.2-0.1,0.3-0.1
		c-0.6-2.4-0.8-4.9-1.7-7.2c-2.3-5.8-10.5-7.8-15.2-3.6c-2.2,2-4,4.3-5.3,6.9c-0.3,0.6-0.6,1.3-1.1,1.9c-1.1,1.4-3,1.2-3.7-0.4
		c-1.5-3.6-4.5-5.5-7.7-7.2c-2.1-1.1-4.2-0.8-6.1,0.6c-1.6,1.1-2.7,2.6-3.2,4.5c-0.8,2.6-0.9,5.2-0.3,7.8c1,5,3.1,9.4,5.8,13.7
		c3.6,5.9,8.7,10.5,13.3,15.6c0.3,0.3,0.7,0.5,1.1,0.8c0.6,0.3,1,0.2,1.4-0.4c0.4-0.6,0.8-1.3,1.4-1.7c1.5-1.3,3-2.5,4.6-3.7
		c5.8-4.6,10.4-10.2,14-16.7C266.6,104.7,267.4,101.2,267.5,97.4z"/>
	<path class="st1" d="M222,252.5c0.4-0.2,0.7-0.5,1.1-0.7c7.6-2.5,15.2-5,22.9-7.4c12.6-3.9,25.3-7.7,38-11.5
		c10.6-3.2,21.1-6.5,31.2-10.9c7.6-3.3,15.2-6.8,22.7-10.2c2.7-1.2,5.5-2.5,8.2-3.7c0.7-0.3,1.4-0.4,2.1-0.6
		c0.9-0.2,1.8-0.2,2.3,0.8c0.4,0.9-0.1,1.7-0.8,2.2c-1.6,1.1-3.2,2.2-4.8,3.1c-11,6.3-22.7,11.2-34.7,15.4
		c-15.3,5.3-31,9.7-46.6,13.9c-10.5,2.8-21.1,5.6-31.7,8.2c-2.9,0.7-5.9,1.2-8.8,1.7c-0.3,0.1-0.6,0-0.9,0
		C222.1,252.7,222.1,252.6,222,252.5z"/>
	<path class="st1" d="M207.8,209.7c1-0.2,2-0.5,3-0.6c5.8-0.5,11.5-1.1,17.3-1.6c8.1-0.6,16.2-1.1,24.3-1.6
		c6.1-0.4,12.1-0.8,18.2-1.3c8.2-0.7,16.5-1.3,24.7-2.3c13.5-1.6,27-3.5,40.5-5.3c1.4-0.2,2.8-0.3,4.2-0.5c0.8-0.1,1.6-0.1,1.9,0.9
		c0.3,0.9-0.2,1.6-1.1,1.9c-2.7,0.9-5.5,1.8-8.3,2.4c-9.8,2.1-19.7,3.5-29.7,4.4c-10.1,0.9-20.1,1.7-30.2,2.4
		c-9.1,0.6-18.3,0.9-27.4,1.2c-8.4,0.3-16.8,0.6-25.2,0.8c-3.7,0.1-7.4-0.1-11-0.2c-0.4,0-0.7-0.1-1.1-0.2
		C207.8,210,207.8,209.9,207.8,209.7z"/>
	<path class="st1" d="M150.4,176.7c0.8-3.7,1.6-7.4,2.5-11.1c1.9-7.5,3.9-14.9,6.9-22c5.9-13.6,14.8-24.5,27.3-32.5
		c1.5-0.9,3.1-1.7,4.8-2.2c0.7-0.2,1.8,0.1,2.5,0.6c0.8,0.6,0.8,1.8,0.2,2.6c-0.4,0.7-1,1.5-1.6,2.1c-3,2.6-6,5.2-9,7.7
		c-8.7,7.2-15.5,15.8-19.8,26.3c-3,7.2-5.4,14.6-8.2,21.9c-1,2.7-2.4,5.2-3.7,7.8c-0.2,0.4-0.8,0.7-1.2,1c-0.1-0.5-0.3-1-0.4-1.5
		c-0.1-0.2,0-0.5,0-0.7C150.6,176.8,150.5,176.8,150.4,176.7z"/>
	<path class="st1" d="M208.8,241.2c-1.5-0.3-3.1-0.4-4.5-0.8c-12-3.5-24.1-6.8-35.8-11.5c-2.7-1.1-5.3-2.6-7.9-4
		c-0.8-0.4-1.4-1.2-1.9-1.9c-0.2-0.4-0.2-1.3,0.1-1.6s1-0.3,1.6-0.4c0.2,0,0.5,0.1,0.7,0.3c9.4,5,19.5,8.3,29.6,11.8
		c5.9,2,11.9,3.9,17.4,6.9c0.4,0.2,0.7,0.5,1.1,0.8C208.9,240.9,208.9,241.1,208.8,241.2z"/>
	<path class="st1" d="M150.5,198c-1.9,0-3.5-1.7-3.5-3.6c0-1.9,1.6-3.6,3.5-3.6s3.5,1.7,3.5,3.7C154,196.5,152.4,198,150.5,198z"/>
	<path class="st1" d="M149.5,207.9c-1.6,0-3-1.3-3-3.1c-0.1-1.8,1.4-3.3,3-3.3s3,1.4,3.1,3.1C152.6,206.3,151.1,207.9,149.5,207.9z"
		/>
	<path class="st0" d="M116.2,30c3.6-9.1,12.4-10.9,20.3-7.6c4.8,2,8.7,5.1,11.3,9.8c0.3,1,0.8,2,1,3c1.6,6.7-0.7,12-7,15.7
		c-0.9,0.5-1.7,1.1-2.6,1.6c-8,2-14.8-0.7-20.5-6.1c-3.5-3.3-4-7.8-3.4-12.4C115.5,32.7,115.9,31.3,116.2,30z M120.5,30.7
		L120.5,30.7c-0.1,0.1-0.2,0.3-0.2,0.5c-2.7,5.5-1.1,11.6,4,14.8c1.8,1.1,3.8,2,5.8,2.8c2.8,1.1,5.7,0.9,8.5-0.2
		c4.8-2,7.1-5.7,6.3-10.9c-0.9-5.8-7.3-11.6-13.5-12.2c-4.2-1.1-8.9,1.1-10.6,4.8l0,0C120.6,30.4,120.6,30.6,120.5,30.7z"/>
	<path class="st0" d="M190.5,52c-2.2-0.3-4.4-0.6-6.3-2c-0.2-0.1-0.4-0.1-0.6-0.2c-5.4-1.8-8.4-5.6-8.8-11.3
		c-0.5-8.8,7-17.1,16-17.7c3.5-0.2,6.9,0.4,10,1.8c7.6,3.4,10.5,12.9,6.3,20.6c-0.4,0.7-0.8,1.4-1.2,2.1c-0.1,0.1-0.1,0.2-0.2,0.2
		l0,0c-2,2.4-4.5,4.2-7.5,5.3C195.8,51.3,193.2,51.6,190.5,52z M185,46.8c0.1,0.1,0.2,0.1,0.3,0.2c0.7,0.3,1.3,0.8,2,0.9
		c2.7,0.4,5.5,0.4,8.2-0.2c5.7-1.3,9.4-5.4,9.8-10.8c0.5-6-3-10.5-9.3-12c-7.7-1.8-15.2,2.5-17,10c-0.4,1.6-0.1,3.3-0.2,5
		c0.5,3.4,2.5,5.6,5.7,6.7l0,0C184.7,46.6,184.9,46.7,185,46.8L185,46.8z"/>
	<path class="st1" d="M210,27.8c0.3,0.5,0.7,1.1,0.9,1.6c1.4,5.1,3,10.1,2.7,15.5c-0.2,3.9-1.5,7.4-4.3,10.2c-0.4,0.4-1,0.9-1.6,1.1
		c-0.5,0.2-1.2,0.2-1.5-0.1s-0.5-1.1-0.3-1.5c0.5-1.3,1.1-2.5,1.9-3.7c1.6-2.7,2.5-5.6,2.4-8.6c-0.1-3.5-0.6-7-0.8-10.6
		c-0.1-1.3,0-2.5,0.1-3.8C209.6,27.9,209.8,27.8,210,27.8z"/>
	<path class="st1" d="M198.7,19c0-1.2,0.7-2,1.8-2c1.2,0,2,0.7,2,1.9c0,1.2-0.7,2.1-1.9,2.2C199.6,21.1,198.7,20.2,198.7,19z"/>
	<path class="st1" d="M207,21.1c0.7,0,1.3,0.5,1.3,1.5c0,1.1-0.4,1.6-1.4,1.6c-0.9,0-1.5-0.7-1.5-1.7
		C205.4,21.5,205.8,21.1,207,21.1z"/>
	<path class="st1" d="M198.5,50.9c3-1.1,5.5-2.8,7.5-5.3c-0.5,2.4-2,3.9-4.2,4.7c-1.1,0.4-2.2,0.6-3.3,0.8
		C198.4,51.1,198.4,51,198.5,50.9z"/>
	<path class="st15" d="M198.5,50.9c0,0.1-0.1,0.2-0.1,0.3c-2.1,0.4-4.2,0.9-6.4,1.3c-0.5,0.1-1-0.3-1.5-0.5
		C193.2,51.6,195.8,51.3,198.5,50.9z"/>
	<path class="st1" d="M139.2,52.5c0.9-0.5,1.7-1.1,2.6-1.6C141.5,52.6,141.5,52.6,139.2,52.5z"/>
	<path class="st1" d="M206,45.6c0.1-0.1,0.1-0.2,0.2-0.2C206.1,45.4,206,45.5,206,45.6z"/>
	<path class="st7" d="M104.7,30.9c0-0.1,0-0.1,0-0.2c0.1,0,0.1,0,0.2,0C104.9,30.8,104.8,30.9,104.7,30.9z"/>
	<path class="st0" d="M328,166.6c-0.6,7.8-4.7,13.2-11.5,16.7c-5.7,2.9-11.5,2.6-17.3,0.5c-6.7-2.5-10.6-10-9.4-17.6
		c0.3-1.7,0.7-3.4,1-5.2c1.1-6.3,8.6-12.7,15.4-13.2c2-0.1,4.2,0.3,6.1,1.1c4.8,1.8,8.8,4.8,12.3,8.5C327,159.9,328,163.1,328,166.6
		z M303.7,153.6c-2.2,0-4.1,1.7-4.1,3.8c0,1.9,1.5,3.4,3.4,3.5c2.2,0.1,4.2-1.9,4.2-4.1C307.3,154.9,305.9,153.6,303.7,153.6z
		 M310.3,164.8c0-1.3-1.1-2.2-2.4-2.2s-2.3,1-2.2,2.3c0,1.2,1,2.2,2.3,2.2C309.2,167.1,310.3,166.1,310.3,164.8z"/>
	<path class="st3" d="M290,184c-0.2-0.2-0.3-0.3-0.5-0.5c0.1-0.1,0.1-0.1,0.2-0.2c0.2,0.2,0.3,0.3,0.5,0.5
		C290.2,183.8,290.1,183.9,290,184z"/>
	<path class="st3" d="M289.4,183.2c-0.1-0.1-0.2-0.3-0.3-0.4c0.1,0,0.1-0.1,0.2-0.1c0.1,0.1,0.2,0.3,0.4,0.4
		C289.5,183.1,289.4,183.1,289.4,183.2z"/>
	<path class="st3" d="M288.9,182.5c-0.1-0.1-0.2-0.2-0.3-0.2c0.1,0,0.3,0.1,0.4,0.1C288.9,182.4,288.9,182.5,288.9,182.5z"/>
	<path class="st3" d="M290.9,184.5c0.1,0.1,0.1,0.2,0.2,0.3l-0.1,0.1c-0.1-0.1-0.2-0.1-0.3-0.2C290.8,184.6,290.9,184.6,290.9,184.5
		z"/>
	<path class="st3" d="M290.7,184.3c0.1,0.1,0.1,0.2,0.2,0.3c-0.1,0.1-0.1,0.1-0.2,0.2c-0.1-0.1-0.2-0.2-0.3-0.2
		C290.6,184.4,290.6,184.3,290.7,184.3z"/>
	<path class="st3" d="M290.5,184.4c-0.1-0.1-0.2-0.2-0.2-0.2c0.1-0.1,0.1-0.1,0.2-0.2c0.1,0.1,0.2,0.2,0.2,0.3
		C290.6,184.3,290.6,184.4,290.5,184.4z"/>
	<path class="st3" d="M290.3,184.2c-0.1-0.1-0.2-0.2-0.2-0.2c0.1-0.1,0.1-0.1,0.2-0.2c0.1,0.1,0.2,0.2,0.2,0.3
		C290.4,184.1,290.3,184.1,290.3,184.2z"/>
	<path class="st3" d="M289.6,183.5c-0.1-0.1-0.1-0.2-0.2-0.3c0.1-0.1,0.1-0.1,0.2-0.2c0.1,0.1,0.1,0.2,0.2,0.2
		C289.7,183.3,289.7,183.4,289.6,183.5z"/>
	<path class="st3" d="M289,182.4c0.1,0.1,0.2,0.2,0.2,0.2c0,0.1-0.1,0.1-0.2,0.1c-0.1-0.1-0.1-0.2-0.2-0.3
		C288.9,182.5,288.9,182.4,289,182.4z"/>
	<path class="st16" d="M267.5,97.4c0,3.7-0.9,7.3-2.7,10.6c-3.5,6.5-8.1,12.1-14,16.7c-1.5,1.2-3.1,2.4-4.6,3.7
		c-0.6,0.5-1,1.1-1.4,1.7c-0.4,0.6-0.8,0.7-1.4,0.4c-0.4-0.2-0.8-0.4-1.1-0.8c-4.6-5.1-9.7-9.7-13.3-15.6c-2.6-4.3-4.8-8.8-5.8-13.7
		c-0.5-2.6-0.5-5.3,0.3-7.8c0.6-1.9,1.6-3.4,3.2-4.5c1.9-1.3,4-1.6,6.1-0.6c3.2,1.7,6.2,3.6,7.7,7.2c0.7,1.6,2.6,1.8,3.7,0.4
		c0.5-0.5,0.8-1.2,1.1-1.9c1.3-2.6,3.1-4.9,5.3-6.9c4.7-4.2,12.9-2.2,15.2,3.6c0.9,2.3,1.2,4.8,1.7,7.2
		C267.7,97.4,267.6,97.4,267.5,97.4z"/>
	<path class="st6" d="M131.3,25.4c-1.9,0.6-3.8,1-5.5,1.7c-1.6,0.7-2.9,1.8-4.4,2.8c-0.2,0.1-0.4,0.2-0.6,0.3
		C122.3,26.5,127.1,24.3,131.3,25.4z"/>
	<path class="st6" d="M120.5,30.7c-0.1,0.2-0.2,0.3-0.2,0.5C120.3,31,120.4,30.9,120.5,30.7z"/>
	<path class="st6" d="M120.7,30.2c-0.1,0.2-0.2,0.3-0.3,0.5C120.6,30.6,120.6,30.4,120.7,30.2z"/>
	<path class="st6" d="M178.8,39.9c1.8,2,3.5,3.9,5.3,5.9c0.2,0.2,0.3,0.5,0.5,0.8C181.3,45.5,179.3,43.3,178.8,39.9z"/>
	<path class="st6" d="M184.5,46.6c0.2,0.1,0.3,0.2,0.5,0.3C184.9,46.7,184.7,46.6,184.5,46.6z"/>
	<path class="st6" d="M185,46.8c0.1,0.1,0.2,0.1,0.3,0.2C185.2,46.9,185.1,46.9,185,46.8z"/>
	<path class="st1" d="M303.7,153.6c2.2,0,3.6,1.3,3.5,3.2c0,2.2-2,4.1-4.2,4.1c-1.9-0.1-3.4-1.6-3.4-3.5
		C299.6,155.3,301.5,153.6,303.7,153.6z"/>
	<path class="st1" d="M310.3,164.8c0,1.2-1,2.3-2.3,2.3c-1.2,0-2.2-0.9-2.3-2.2c0-1.3,0.9-2.3,2.2-2.3
		C309.2,162.6,310.2,163.6,310.3,164.8z"/>
</g>
</svg>
