<?xml version="1.0" encoding="utf-8"?>
<!-- Generator: Adobe Illustrator 25.2.0, SVG Export Plug-In . SVG Version: 6.00 Build 0)  -->
<svg version="1.1" id="Layer_1" xmlns="http://www.w3.org/2000/svg" xmlns:xlink="http://www.w3.org/1999/xlink" x="0px" y="0px"
	 viewBox="0 0 576 720" style="enable-background:new 0 0 576 720;" xml:space="preserve">
<style type="text/css">
	.st0{fill:#FEFEFE;}
	.st1{fill:#FFFFFF;}
	.st2{fill:#1F1F1F;}
	.st3{fill:#68924A;}
	.st4{fill:#29501F;}
	.st5{fill:#AEAEAE;}
	.st6{fill:#BDBDBD;}
	.st7{fill:#4E7433;}
	.st8{fill:#454545;}
	.st9{fill:#C0C0C0;}
	.st10{fill:#BFBFBF;}
	.st11{fill:#B0B0B0;}
	.st12{fill:#BEBEBE;}
	.st13{fill:#030303;}
	.st14{fill:#2B4525;}
	.st15{fill:#F3F3F3;}
	.st16{fill:#C6C6C6;}
	.st17{fill:#CBCBCB;}
	.st18{fill:#7E7E7E;}
	.st19{fill:#A5A5A5;}
	.st20{fill:#262626;}
	.st21{fill:#CECECE;}
	.st22{fill:#222222;}
	.st23{fill:#689349;}
	.st24{fill:#25501A;}
	.st25{fill:#4A732D;}
	.st26{fill:#020202;}
	.st27{fill:#66894E;}
	.st28{fill:#7A9864;}
</style>
<g>
	<path d="M405.9,561.5c0.9,0.9,1.9,1.8,2.8,2.7c5.1,5.1,10.2,10.2,15.3,15.4c-0.1,0.2-0.1,0.4-0.2,0.6c-1,0-2,0-3.1,0
		c-26.9,0-53.9-0.3-80.8,0c-30.9,0.4-61.6-1.7-92.3-4.6c-15-1.4-30.1-3.2-45.1-5c-14.8-1.8-29.6-3.9-44.2-7
		c-0.7-0.1-1.4-0.4-2.1-0.7c1-1.1,1.8-2,2.6-2.9c1.4-1.5,2.9-3,4.3-4.6c1.4-1.3,2.7-2.7,4.1-4c0.5-0.3,1.1-0.6,1.6-1.1
		c8.7-8.6,17.3-17.3,26-26c0.4-0.4,0.7-1.1,1.1-1.6c1.3-1.4,2.7-2.7,4-4.1c2.5-2.7,5.1-5.4,7.6-8.1c0.8-0.8,1.5-1.6,2.3-2.4
		c1.8-1.9,3.5-3.9,5.3-5.8c0.6-0.6,1.1-1.2,1.7-1.8c1.2-1.3,2.4-2.7,3.6-4c0.4-0.4,0.7-0.8,1.1-1.2c0.9-1,1.9-1.8,2.6-2.9
		c0.3-0.4,0.3-1.5,0-1.8c-0.5-0.4-1.4-0.5-2-0.5c-0.5,0-0.9,0.6-1.3,1l0,0c-3.3,3.3-6.7,6.7-10,10c-1.5,1.5-3,3.1-4.4,4.6
		c-0.6,0.6-1.3,1.2-1.9,1.8c-9.9,9.9-19.9,19.9-29.8,29.8c-0.5,0.5-1,1.1-1.6,1.7c-0.9,0.9-1.9,1.8-2.8,2.7
		c-2.5,2.4-5.1,4.8-7.6,7.2c-0.6,0.5-1.1,1-1.7,1.5c-2.4,2.2-4.7,4.4-7.1,6.6c-0.8,0.7-1.5,1.4-2.3,2.1c-2.6,2.1-2.6,2.1-5.9,1.1
		c-12.5-3.6-24.4-8.5-35.6-15.1c-1.2-0.7-2.5-1.4-3.8-2.1c-1.2-0.8-2.3-1.6-3.5-2.3c-0.6-0.5-1.1-1-1.8-1.5
		c-6.1-4.4-11.2-9.6-15.3-15.9c-0.3-0.5-0.7-0.9-1.1-1.3c-0.5-1.2-0.7-2.6-2.3-2.9c-0.2-0.5-0.5-1.1-0.7-1.6
		c-0.2-0.9-0.4-1.8-0.6-2.7c-1.6-4.6-3.2-9.3-4.8-13.9c-0.3-0.9-0.6-1.8-0.9-2.7c-0.8-6.4-1.6-12.8-2.3-19.2c0-5.6,0-11.1,0.1-16.7
		c0.1-0.7,0.2-1.3,0.3-2c0.3-9.3,0.5-18.6,1-27.8c0.3-6.4,0.9-12.7,1.4-19.1c0.3-3.4,0.5-6.7,0.8-10.1c0.1-0.9,0.3-1.7,0.3-2.6
		c0.7-7.6,1.1-15.3,2-22.9c0.7-5.9,0.1-11.6-1.9-17.2c-0.1-0.3-0.2-0.5-0.3-0.8c-6.7-22.2-12.9-44.5-17.4-67.2
		c-3.6-18.1-6.5-36.3-8.9-54.5c-0.8-6.1-1.3-12.3-1.6-18.5c-0.2-5.7,0.3-11.5,2.1-16.9c2.2-6.6,6.7-10.5,13.7-11.4
		c3.6-0.5,7.2-0.1,10.7,0.5c8.5,1.6,16.2,5.1,23.8,9.2c13.5,7.4,26.2,15.9,38,25.7c17,14.1,33.9,28.4,50.8,42.7
		c0.7,0.6,1.5,1.2,2.3,1.8c1.1,1.2,2.3-0.2,3.4,0c0.9-0.1,1.7,0,2.6-0.2c6.6-1.7,13.3-3,20.1-3.4c1.8-0.1,3.5-0.7,5.3-1
		c1.7-0.4,3.5-0.8,5.2-1.2c0.8-0.1,1.5-0.2,2.3-0.4c13.7-3.1,27.5-4.5,41.6-4.5c25-0.1,50,0.8,75,2.1c12.7,0.7,25.3,2.1,37.8,4.5
		c1.2,0.2,2.4,0.4,3.1,0.5c2.4-2.6,4.4-5.1,6.6-7.2c6.2-5.9,12.5-11.6,18.7-17.5c10.6-9.9,21.6-19.2,33-28.1
		c7.4-5.7,15-11,23.1-15.6c6.8-3.9,13.8-7.4,21.4-9.8c6.4-2.1,13-3.1,19.8-2.7c5.3,0.3,8.4,3,9.5,8.2c0.2,0.9,0.3,1.9,0.3,2.9
		c0.1,5,0.3,10.1,0.2,15.1c-0.5,23.9-3.4,47.6-7.6,71.1c-3.1,17.3-7.1,34.4-11.6,51.3c-1.2,4.6-1.4,9.1-0.7,13.8
		c1.5,10.2,3.2,20.3,4.3,30.5c1.9,16.7,3.6,33.4,4.9,50.1c1.8,24.7,2.1,49.4-0.7,74.1c-1.3,11-3.5,21.8-7.4,32.2
		c-6.1,16.3-17.2,27.6-33.5,33.7c-6.7,2.5-13.6,4.6-20.7,5.9c-1.5,0.3-3,0.4-4,2c-0.4,0.7-1.4,1.1-2.2,1.4c-3.5,0.9-7,1.9-9.6-1.9
		l0,0c-1-1.2-2-2.3-3-3.5l0,0c-1.4-1.6-2.7-3.1-4.1-4.7l0,0c-3.3-3.5-6.7-7-10-10.5l0,0c-3.3-3.3-6.7-6.6-10-9.8
		c-0.3-0.3-0.8-0.4-1.2-0.6c-0.4-0.4-0.8-0.7-1.2-1.1c-2.3-2.2-4.7-4.3-7-6.5c-0.4-0.4-0.8-0.7-1.2-1.1c-1.9-1.8-3.9-3.5-5.8-5.3
		c-0.2-0.2-0.4-0.4-0.6-0.6c-1.6-1.4-3.1-2.8-4.7-4.1c-0.2-0.2-0.4-0.4-0.6-0.5c-1.6-1.4-3.1-2.7-4.7-4.1c-0.2-0.2-0.4-0.4-0.6-0.6
		c-1.4-1.2-2.7-2.3-4.1-3.5c-0.2-0.2-0.4-0.4-0.6-0.6c-1.2-1-2.3-2-3.5-3c-0.2-0.2-0.4-0.4-0.6-0.5c-1.2-1-2.3-2-3.5-2.9
		c-0.2-0.2-0.4-0.4-0.6-0.6c-1-0.8-1.9-1.6-2.9-2.4c-0.2-0.2-0.4-0.4-0.6-0.5c-1.1-1-2.3-2-3.4-3l0,0c-1-0.8-2-1.5-3-2.3
		c-0.2-0.2-0.4-0.4-0.6-0.6c-0.9-0.8-1.9-1.6-2.8-2.5l0,0c-1-0.8-2-1.6-3-2.4l0,0c-1-0.8-2-1.6-3-2.4l0,0c-0.8-0.6-1.6-1.2-2.3-1.8
		l0,0c-1-0.8-2-1.5-3-2.3l0,0c-0.8-0.5-1.6-1.1-2.4-1.6c-0.6-0.4-1.1-0.8-1.7-1.2c-0.8-0.6-1.6-1.1-2.4-1.7
		c-1.9-1.2-3.9-2.3-5.8-3.5c-1-1-2.1-1-3-0.1c-1,1.1-0.1,2,0.7,2.7c1.5,1.4,3,2.7,4.5,4c0.2,0.1,0.3,0.3,0.5,0.4
		c1.2,1,2.4,2,3.6,3.1c0.2,0.1,0.3,0.3,0.5,0.4c1,0.8,2,1.7,3,2.5c0.2,0.1,0.3,0.3,0.5,0.4c1.2,1,2.4,2.1,3.6,3.1
		c0.2,0.1,0.3,0.3,0.5,0.4c1.2,1,2.4,2.1,3.6,3.1c0.2,0.1,0.3,0.3,0.5,0.4c1.4,1.2,2.8,2.5,4.2,3.7c0.2,0.1,0.3,0.3,0.5,0.4
		c1.4,1.2,2.8,2.5,4.2,3.7c0.4,0.3,0.7,0.6,1.1,0.9c1.6,1.4,3.2,2.8,4.7,4.3c0.2,0.1,0.3,0.3,0.5,0.4c1.8,1.6,3.6,3.2,5.4,4.9
		c0.4,0.3,0.7,0.6,1.1,1c2,1.8,3.9,3.6,5.9,5.4c0.4,0.3,0.7,0.6,1.1,1c2.2,2,4.3,4,6.5,6c0.4,0.3,0.7,0.6,1.1,1c2.2,2,4.3,4,6.5,6
		c0.4,0.3,0.7,0.6,1.1,1c2.4,2.2,4.7,4.4,7.1,6.6c0.6,0.5,1.1,1,1.7,1.5C400.4,556.3,403.2,558.9,405.9,561.5z M390.3,355.7
		c-3.3,0-6.5,0-9.8,0.1c-0.8,0-1.6,0.4-2.4,0.6c-1.5,0.3-3,0.5-4.6,0.8c-12.2,2.4-22.5,8.3-30.9,17.4
		c-12.6,13.5-19.2,29.5-17.5,48.2c1,11.1,5.2,21,11.9,29.9c4.5,5.9,9.7,11.1,15.6,15.6c0.5,0.4,1,0.9,1.9,1.7
		c-12-0.1-23.4,0.2-34.9,1.7c0.5,1.8,1.7,2.1,2.9,2.2c1.7,0.1,3.5,0.1,5.2,0.1c10.6,0.1,21.1,0.2,31.7,0.3c2.1,0,4,0.6,5.9,1.4
		c12.6,5.8,25.7,7.6,39.4,4.9c4.2-0.8,8.5-1,12.7-1.4c0.6-0.1,1.1,0.2,1.7,0.3c3.7,0.7,7.3,2.1,10.6,3.9c1.4,0.7,2.7,1.5,4.7,0.6
		c-1.3-3.7-4.9-5-7.4-7.4c0.1-0.2,0.1-0.3,0.1-0.3c1-0.4,1.9-0.9,2.9-1.3c12.1-5.4,22.2-13,29.2-24.4c0.9-1.4,1.7-2.8,2.5-4.2
		c3.4-0.5,5.1-2.2,5.3-5.8c0.1-2.5-0.1-5-0.1-7.5c1.3-6.1,1.8-12.2,1.4-18.5c-1.6-21-11.5-36.5-30.5-46c-2.1-1-4.2-2-6.3-2.9
		c-0.5-0.4-1-0.9-1.6-1.2c-3.3-1.5-6.5-3-9.8-4.3c-6.2-2.4-12.5-4-19.1-4.5C397.5,355.5,393.9,355.7,390.3,355.7z M432.6,266.6
		c-0.9,1-1.8,2-2.7,2.9c-0.9,1-1.9,2-2.8,3c-0.2,0.1-0.2,0.2-0.1,0.4c-1.4,1.1-2.6,2.3-2.9,4.9c1.8-1.2,2.9-2.2,3.7-3.4
		c2.7-2.6,5.3-5.2,8-7.8c2-2.1,4.1-4.1,6.1-6.2c3.4-3.3,6.7-6.8,10.2-10c5.4-5,11-9.8,16.6-14.6c1.3-1.1,2.8-2,4.4-2.8
		c2.2-1.1,3-0.7,3.5,1.6c0.3,1.5,0.5,3.1,0.5,4.6c0.3,7.2-0.3,14.4-1.5,21.4c-1.9,11.8-4.2,23.5-6.3,35.2c-0.3,1.5-0.6,3-0.8,4.6
		c-0.1,1-0.2,2.1,0.9,2.5c1.2,0.4,1.7-0.7,2-1.6c0.4-1.1,0.8-2.2,1-3.3c1.7-7.8,3.5-15.5,4.9-23.3c2.1-11,3.4-22,3.1-33.2
		c-0.1-2.6-0.4-5.2-1-7.8c-1-4.1-3.8-5.5-7.7-4c-2,0.8-4,2.1-5.7,3.4c-11.5,9-21.3,19.7-30.9,30.6
		C434.3,264.7,433.4,265.6,432.6,266.6z M276.3,508.3c0.3,1,0.7,1.9,1,2.9c0.4,3.8,0.6,7.6,1.4,11.2c0.8,3.8,2,7.5,3.4,11.1
		c1.1,2.8,3,5.2,5.6,6.9c3.6,2.5,7.5,2.2,10.6-0.9c1.1-1.1,2.2-2.5,2.9-4c1.2-2.6,2.3-5.4,3-8.2c2.2-8.3,2.7-16.8,3.5-25.3
		c0.3-3.7,0.5-7.4,0.6-11c0-1.4-0.4-2.9-0.7-4.3c-0.1-0.4-0.8-1-1.3-1c-0.4,0-1.1,0.5-1.3,0.9c-0.4,0.7-0.6,1.5-0.6,2.2
		c-0.4,3.9-0.9,7.7-1.2,11.6c-0.7,8.2-1.1,16.5-3,24.5c-0.7,3-1.6,6-3,8.7c-2.4,4.8-5.7,4.9-8.6,0.3c-1.2-1.9-2.3-4.1-2.8-6.3
		c-1-4.5-2-9.1-2.3-13.7c-1-15.6-1.6-31.2-2.5-46.8c-0.1-1.2,0.3-2,0.9-2.9c3.9-6.1,7.7-12.3,11.6-18.5c0.6-0.9,1.1-1.9,1.4-2.9
		c0.5-1.6,0.1-2.5-1.3-3.4c-1.7-1.2-3.6-1.8-5.7-1.8c-1.7,0-3.5-0.3-5.2-0.3c-4.6-0.1-9.1-0.3-13.7-0.2c-3.5,0.1-4.8,2.2-3.5,5.5
		c1.8,4.6,3.8,9.1,5.8,13.6c0.4,1,0.8,2,1.6,2.8c1.6,1.7,2.5,3.4,1.4,5.7c-0.3,0.6-0.1,1.3-0.2,2c-0.2,6.2-0.4,12.4-0.5,18.6
		c-0.2,9.1-1,18.2-2.9,27.1c-1.1,5.4-2.8,10.7-6.2,15.2c-1.3,1.8-2.9,3.4-4.7,4.7c-2.5,1.7-5.2,1.1-6.7-1.5c-1-1.6-1.7-3.5-2.1-5.4
		c-1.2-5.5-1.2-11.2-0.8-16.8c0.3-3.9,0.6-7.7,0.8-11.6c0-1.3-0.3-2.7-0.8-3.9c-0.6-1.4-2.2-1.4-3-0.1c-0.5,0.8-0.7,1.8-1,2.7
		c-2,9-2.1,18.1-0.7,27.2c0.4,2.7,1.2,5.5,2.3,8.1c3.3,7.3,10.3,8.8,16.4,3.7c2.7-2.2,4.8-5.1,6.5-8.1
		C273.7,521,275.3,514.8,276.3,508.3z M229.6,425c0.1-1,0.3-1.9,0.4-2.9c0.8-5.6,1-11.2-0.1-16.8c-2.8-14.9-10.8-26.4-22.9-35.2
		c-8-5.8-16.8-10-26.4-12.5c-9-2.4-18.2-3.3-27.3-1c-21.8,5.5-36.3,19.2-44.2,40.1c-2.2,5.9-2.9,12.1-2.5,18.3
		c1.3,18.2,8.9,33.1,22.8,44.9c6.6,5.6,14,9.7,22,12.9c0.7,0.3,1.4,0.7,2.2,1c-1.1,0.5-2,0.5-2.9,0.5c-6.9,0.1-13.8,0-20.7,0.2
		c-3.9,0.1-7.7,0.7-11.5,1.1c-0.8,0.2-1.5,0.4-2.3,0.6c0,0.2,0,0.4,0,0.6c0.6,0.2,1.1,0.3,1.7,0.5c1.8,0.2,3.6,0.6,5.4,0.7
		c24.8,0.2,49.6,0.4,74.4,0.5c7.7,0,15.5-0.4,23.2-0.6c1.3,0,2.5-0.2,3.7-0.4c0.9-0.2,1.6-0.7,1.6-1.7c0-1.1-0.8-1.5-1.7-1.6
		s-1.7-0.2-2.6-0.2c-7.7,0-15.5,0-23.2-0.1c0.8-0.6,1.5-1.2,2.3-1.7c5.5-3.2,10.4-7.1,14.4-11.9c4.1-5,7.7-10.4,10.4-16.3
		C228.7,437.9,230.1,431.7,229.6,425z M132,291.2c-0.5-1.1-0.7-1.7-1-2.1c-1.5-1.8-2.9-3.7-4.7-5.2c-8.8-7.6-17.6-15.2-26.5-22.7
		c-0.8-0.7-1.7-1.3-2.6-1.8c-3.1-1.7-5.7-0.5-6.3,2.9c-0.3,1.7-0.3,3.5-0.2,5.2c0.3,7.4,0.5,14.7,1,22.1c0.8,11.7,1.8,23.4,4,34.9
		c0.6,3,1.4,6.1,2.6,8.9c2,4.8,5.7,5.9,10.1,3.3c1.8-1.1,3.6-2.4,5.2-3.7c3.8-3.2,7.4-6.5,11.3-9.6c5.4-4.4,11-8.6,16.6-12.7
		c1.4-1,3-1.6,4.6-2.2c1.3-0.4,2.1-1.1,2-2.5s-1-2.2-2.3-2.1c-1.3,0-2.8,0.2-3.9,0.7c-2.7,1.3-5.4,2.7-7.8,4.5
		c-6.3,4.8-12.4,9.9-18.6,14.9c-2.6,2.1-5.1,4.4-7.8,6.6c-1,0.8-2.2,1.4-3.7,2.3c-0.7-2-1.5-3.5-1.9-5.2c-0.9-4.4-1.8-8.7-2.4-13.1
		c-2-14.9-2.7-29.9-2.8-45c0-0.8,0-1.7,0-3c1.2,0.8,2,1.3,2.7,1.9c7.3,5.5,14.5,11,21.8,16.5c2.3,1.7,4.8,3.3,7.2,4.9
		C129.6,290.3,130.5,290.5,132,291.2z M438.4,516.3c-1.5-2.1-3.1-3.3-4.9-4.2c-6.6-3.5-13-7.3-19.9-10.3
		c-19.8-8.5-40.2-15.3-60.9-21c-5.4-1.5-10.9-2.5-16.4-3.6c-1.1-0.2-2.3-0.1-3.4,0.1c-0.5,0.1-1,0.8-1.2,1.4c-0.1,0.3,0.5,1.1,1,1.2
		c1.4,0.5,2.8,0.8,4.2,1.1c28.9,7.7,56.9,18,84.4,29.6c3.6,1.5,7.1,3.1,10.7,4.6C433.7,516.1,435.7,516.7,438.4,516.3z M116.7,506.6
		c0,0.2,0.1,0.5,0.1,0.7c1.1,0,2.3,0.1,3.4,0c2.5-0.3,5-0.7,7.5-1.2c26.1-5.1,52.3-10.3,78.4-15.4c3.5-0.7,7-1.5,10.5-2.4
		c1-0.3,2.5-0.3,2.5-2.3c-0.8-0.2-1.7-0.6-2.6-0.5c-2.4,0.2-4.8,0.5-7.2,0.9c-16.9,3.2-33.7,6.3-50.5,9.7
		c-12.1,2.5-24.2,5.3-36.3,8.1C120.4,504.6,118.3,505.2,116.7,506.6z M273,323.7c0.2,4.4,3.7,6,7,5.5s6.5-1.8,9.5-3.2
		c2.8-1.3,5.2-3.3,6.4-6.4c0.8-2.1,0.1-3.8-2-4.7c-0.8-0.3-1.7-0.5-2.5-0.4c-5.2,0.3-10,2-14.4,4.7c-0.9,0.6-1.8,1.2-2.5,2
		C273.9,321.9,273.5,322.8,273,323.7z M271.7,315.6c1.9,0,3.7-1,5-2.9c3-4.3,4.5-9.2,5.7-14.2c0.2-0.6,0.1-1.4,0-2
		c-0.4-2-2.1-2.9-3.9-2.1c-1.2,0.5-2.4,1.3-3.4,2.2c-3.2,2.9-5.2,6.7-6.9,10.6c-0.6,1.3-0.7,2.8-0.8,4.2
		C267.5,313.8,269.4,315.5,271.7,315.6z M446.8,532.2c-0.5,4.1,0.8,8.5,2.4,12.9c0.4,1.1,1,2.1,1.8,2.9c1.2,1.3,2.8,1.2,4.1,0
		c1.3-1.2,1.7-2.8,1.7-4.5c-0.1-3.6-0.2-7.1-0.7-10.7c-0.4-2.6-1-5.4-2.8-7.5c-1-1.2-2.2-2.4-3.9-1.8c-1.8,0.6-2.4,2.1-2.4,3.9
		C446.8,528.9,446.8,530.2,446.8,532.2z M283,348.8c1.9,0,3.8,0,4.9-1.9c1.1-2,0.5-3.8-0.7-5.7c-1.4-2.2-3.5-3.6-5.6-4.9
		c-1.8-1-3.9-1.9-5.9-2.1c-4.1-0.5-6.5,3.1-4.7,6.8C273.4,346,277.7,348.2,283,348.8z M474.7,533.3c-0.2-0.5-0.5-1.7-1.1-2.6
		c-1.9-3-3.8-6.1-6.1-8.8c-2.4-2.9-5.1-5.5-9.1-6.4c-1.5-0.3-2.9,0-3.7,1c-0.5,0.8-0.3,2.2-0.2,3.3c0,0.5,0.5,1,0.8,1.5
		c2.3,3.7,6.1,5.9,9.1,8.9c2.1,2.1,4.6,3.8,7.1,5.5C473.4,536.8,474.7,536,474.7,533.3z M97,489.5c-1.2,0.2-2.5,0.4-3.7,0.8
		c-5,1.4-9.7,3.3-13.5,7c-1,1-2.3,2-1.6,3.7c0.8,1.7,2.5,1.6,4,1.5c0.5,0,1-0.2,1.4-0.3c3.1-1,6.3-1.9,9.4-3c1.8-0.6,3.7-1.2,5.4-2
		c2.9-1.2,3.8-3.5,2.5-5.8C100.1,489.8,98.6,489.6,97,489.5z M450.5,324.6c-0.3-0.9-0.5-1.6-0.8-2.1c-0.7-1.1-1.5-2.3-2.4-3.3
		c-5.5-6.1-11.7-11.3-18.4-15.9c-1.3-0.9-2.7-1.6-4.1-2.2c-1-0.4-2.3-0.9-2.8,0.3c-0.3,0.6,0.3,1.8,0.7,2.6c0.3,0.7,1,1.2,1.6,1.7
		c1.6,1.4,3.2,2.8,4.9,4.1c6.1,4.9,12.4,9.6,17.6,15.5c0.2,0.2,0.4,0.5,0.6,0.6c0.6,0.2,1.4,0.4,1.9,0.2
		C449.8,325.8,450.1,325.1,450.5,324.6z M257.9,554.7c-0.7-1-1.3-2.4-2.3-3.1c-1.4-0.9-3.1-0.5-4.3,0.6c-1.5,1.3-2.9,2.8-4,4.5
		c-1.9,3-3.6,6.2-5.2,9.3c-0.8,1.6-0.3,3.2,0.8,4s2.4,0.6,3.9-0.7c1.3-1.1,2.4-2.5,3.7-3.6c2.4-2.2,4.3-4.7,5.9-7.5
		C257,557.2,257.3,556.1,257.9,554.7z M485.8,514.6c1.7,0,3.1-0.1,3.6-1.5c0.5-1.5-0.7-2.2-1.8-2.9c-0.2-0.2-0.4-0.4-0.7-0.5
		c-5.7-2.3-11.5-4.6-17.2-7c-1.2-0.5-2.3-0.4-3.1,0.6c-0.7,0.9-0.9,2.9,0,3.8c0.9,1,1.9,2,3.1,2.5c3,1.3,6.1,2.5,9.2,3.4
		C481.2,513.9,483.7,514.2,485.8,514.6z M92.6,511.7c0.2,0,0.5-0.1,0.7-0.2c3.3-1.7,6.8-3.3,9.9-5.3c1.3-0.8,2.2-2.4,2.9-3.9
		c0.9-1.7,0.2-3.8-1-4.7c-1.3-0.9-3.1-0.6-4.7,1c-2.9,2.9-5.8,5.7-8.6,8.7c-0.5,0.5-1,1.2-1.3,1.9C89.9,510.6,90.8,511.8,92.6,511.7
		z M293.9,563.5c-0.9-2.8-1.6-5.4-2.8-7.8c-0.8-1.8-2.2-3.4-3.5-4.9c-1.4-1.5-3.1-1.5-4.5-0.5c-1.1,0.8-1.7,2.9-1.2,4.4
		c1.6,4.3,4.8,7.4,7.7,10.7c0.5,0.6,2,0.9,2.6,0.6C293,565.6,293.4,564.4,293.9,563.5z M113.6,514.2c-0.2-1.6-1-2.5-2.2-3.1
		c-1.6-0.7-2.8,0-3.9,1c-3.4,3-6.1,6.7-8.7,10.4c-0.7,1.1-1,2.2-0.1,3.2c1,1.1,2.1,0.4,3.2-0.1c3.9-2,7.2-4.8,10.1-8.2
		C112.6,516.5,113,515.3,113.6,514.2z M269.8,562.3h-0.1c0.1,1.7,0.1,3.5,0.5,5.1c0.1,0.7,1,1.7,1.6,1.7c0.8,0,1.9-0.5,2.4-1.2
		c1.9-3,2.5-6.4,2-9.9c-0.2-1.4-2.2-3.3-3.3-3.2c-1.5,0.1-2.8,1.5-3,3.4c-0.1,0.5,0,1,0,1.4C269.8,560.6,269.8,561.5,269.8,562.3z
		 M349,273.5c3.9,0.4,7.7,0.9,11.6,1.3c0-0.2,0-0.5,0.1-0.7C356.8,273.4,353,272.7,349,273.5z M423.3,278.9
		c-0.2-0.2-0.4-0.4-0.6-0.6c-0.9,0.2-1.4,0.7-1.5,2.4C422.3,279.8,422.8,279.3,423.3,278.9z M484.5,202.4c0,0.2,0,0.5,0,0.7
		c0.7-0.1,1.6,0.5,2.5-0.9C485.9,202.3,485.2,202.4,484.5,202.4z M508.2,197.9c0-0.2,0-0.5,0.1-0.7c-0.6-0.1-1.1-0.2-1.7-0.2
		c0,0.2-0.1,0.4-0.1,0.5C507,197.6,507.6,197.7,508.2,197.9z"/>
	<path class="st0" d="M430.6,577.3c2.6,3.8,6.1,2.9,9.6,1.9c0.8-0.2,1.8-0.7,2.2-1.4c0.9-1.6,2.5-1.7,4-2c7.1-1.4,13.9-3.4,20.7-5.9
		c16.3-6.2,27.4-17.4,33.5-33.7c3.9-10.4,6.1-21.2,7.4-32.2c2.8-24.7,2.6-49.4,0.7-74.1c-1.3-16.7-3-33.4-4.9-50.1
		c-1.1-10.2-2.8-20.4-4.3-30.5c-0.7-4.7-0.5-9.2,0.7-13.8c4.5-17,8.5-34,11.6-51.3c4.2-23.5,7.1-47.2,7.6-71.1
		c0.1-5-0.1-10.1-0.2-15.1c0-1-0.1-1.9-0.3-2.9c-1.1-5.2-4.2-7.9-9.5-8.2c-6.8-0.3-13.3,0.7-19.8,2.7c-7.5,2.4-14.5,6-21.4,9.8
		c-8.1,4.6-15.7,9.9-23.1,15.6c-11.5,8.8-22.5,18.2-33,28.1c-6.2,5.8-12.6,11.6-18.7,17.5c-2.2,2.1-4.2,4.5-6.6,7.2
		c-0.7-0.1-1.9-0.3-3.1-0.5c-12.5-2.4-25.1-3.8-37.8-4.5c-25-1.3-50-2.3-75-2.1c-14,0.1-27.9,1.5-41.6,4.5c-0.8,0.2-1.5,0.2-2.3,0.4
		c-5.8,0.4-11.7,0.8-17.5,1.1c-1.2,0.1-2.5,0.1-3.7,0.4c-5.2,1.4-10.3,2.8-15.5,4.3c-0.8-0.6-1.5-1.2-2.3-1.8
		c-16.9-14.2-33.8-28.5-50.8-42.7c-11.8-9.8-24.5-18.4-38-25.7c-7.5-4.1-15.3-7.6-23.8-9.2c-3.5-0.7-7.1-1.1-10.7-0.5
		c-7,1-11.5,4.9-13.7,11.4c-1.8,5.5-2.4,11.2-2.1,16.9c0.3,6.2,0.8,12.4,1.6,18.5c2.5,18.3,5.3,36.4,8.9,54.5
		c4.6,22.7,10.8,45,17.4,67.2c0.1,0.3,0.2,0.6,0.3,0.8c2,5.6,2.6,11.2,1.9,17.2c-0.9,7.6-1.4,15.3-2,22.9c-0.1,0.9-0.2,1.7-0.3,2.6
		c-0.3,1.2-0.7,2.3-0.9,3.5c-1,5.7-2.2,11.5-2.1,17.3c-0.2,0.6-0.5,1.3-0.5,1.9c-0.1,6-0.1,12-0.1,18c0,1.1,0,2.3,0,3.4
		c-0.2,0.6-0.5,1.3-0.5,1.9c0,9.2-0.1,18.3,0,27.5c0,0.7,0.4,1.4,0.6,2.1c0.8,6.4,1.6,12.8,2.3,19.2c0,0.5-0.2,1-0.1,1.4
		c1.1,6,3.3,11.8,5.7,17.4c0.1,0.2,0.4,0.3,0.7,0.5c0.2,0.5,0.5,1.1,0.7,1.6c0,1.8,1,3.1,2.2,4.4c1.8,3.9,4.7,7,7.7,10
		c2.8,2.8,6.1,4.9,9.2,7.4c1.6,0.7,3.2,1.5,4.8,2.2c1.3,0.7,2.5,1.4,3.8,2.1c11.2,6.6,23.1,11.5,35.6,15.1c3.3,0.9,3.3,1,5.9-1.1
		c-1.5,2.7-2,3-4.8,2.2c-7.7-2.1-15.3-4.7-22.6-8.1c-6.3-3-12.6-5.9-18.9-8.9c-3.9-1.8-7.3-4.4-10.5-7.2
		c-8.1-7.1-13.8-15.8-17.2-26.1c-1.5-4.6-3-9.2-3.7-13.9c-0.6-4-1-8-1.3-12.1c-1.3-17.5-0.6-35.1-0.5-52.6
		c0.1-10.2,0.9-20.4,3.6-30.4c0.7-2.4,0.7-5,0.9-7.4c0.4-3.9,0.8-7.9,1.1-11.8c0.3-4.7,0.8-9.5,0.6-14.2c-0.1-2.8-1.3-5.6-2.1-8.4
		c-3.2-11.2-6.6-22.4-9.6-33.7c-3.9-14.3-7.1-28.8-9.7-43.4c-1.4-8.1-2.7-16.1-4.1-24.2c-1.3-7.5-2.6-15-3.9-22.5
		c-0.4-2.5-0.6-5-0.8-7.5c-0.2-3.4-0.5-6.7-0.6-10.1c-0.1-6.5,1.2-12.9,3.7-18.9c2.5-6.1,7.7-9.3,14.3-9.7c8.8-0.6,17,1.9,24.9,5.5
		c14.2,6.3,27.1,14.8,39.4,24.2c7.1,5.5,14,11.2,21,16.9c6.2,5.1,12.3,10.3,18.4,15.5c6.6,5.6,13.2,11.3,19.8,16.9
		c0.9,0.8,1.6,0.7,2.6,0.3c5.5-2.1,11.2-3.5,17.1-4.2c5.3-0.6,10.5-1.3,15.9-1.1c3.9,0.2,7.6-0.9,11.5-1.5c4.8-0.8,9.7-1.4,14.6-2.1
		c14.4-1.8,28.8-1.1,43.2-1.1c6.8,0,13.6,0,20.3,0.7c5.3,0.5,10.6,0.2,15.9,0.5c5.1,0.3,10.2,0.7,15.3,1.1c0.6,0,1.2,0,1.7,0.1
		c4.2,0.4,8.4,0.7,12.7,1.1c4,0.4,8.1,0.7,12.1,1.3c4.1,0.6,8.2,1.3,12.2,2.1c1.6,0.3,2.5,0,3.7-1.3c4-4.2,8.3-8.2,12.4-12.2
		c0.3-0.3,0.7-0.7,1.1-1c3.9-3.7,7.7-7.4,11.6-11c4.4-4,8.8-7.8,13.3-11.6c6.6-5.5,13.1-11.1,19.9-16.3c8-6.1,16.3-11.7,25.3-16.4
		c5.6-2.9,11.2-5.7,17.2-7.7c4.3-1.4,8.7-2.5,13.3-2.7c2.3-0.1,4.6-0.6,6.9-0.5c3.5,0.1,6.6,1.3,8.9,4.1c2,2.5,2.4,5.5,2.5,8.5
		c0.2,7.7,0.2,15.3,0,23c-0.1,4.4-0.7,8.8-1.1,13.2c-0.3,3.3-0.3,6.6-0.6,9.8c-0.4,4-0.8,8-1.3,12.1c-0.5,3.6-1,7.2-1.6,10.8
		c-0.6,4-1.2,8-2,12c-1.6,8.7-3.2,17.4-5,26.1c-1.7,8-3.8,15.9-5.8,23.9c-1.2,5-3.1,9.8-2.9,15c0.1,2.2,0.3,4.4,0.6,6.6
		c0.9,6.7,1.9,13.3,2.9,20c0.7,4.9,1.6,9.9,2.2,14.8c0.5,4.3,0.8,8.6,1.3,12.9c0.5,5,1.1,9.9,1.7,14.9c0.2,2.3,0.5,4.6,0.6,6.9
		c0.2,4,0.4,8.1,0.6,12.1c0.2,4.7,0.2,9.5,0.6,14.2c1.1,10.9,0.4,21.9,0.4,32.8c0,6-0.5,12-1.1,17.9c-1.3,11-2.6,22-6,32.6
		c-2.7,8.4-6.1,16.6-11.8,23.4c-4.5,5.3-9.7,9.9-16,13.3c-9.5,5-19.7,7.9-30.1,10c-0.9,0.2-1.5,0.5-2.2,1.2
		c-2.8,2.7-6.3,3.4-9.9,2.8C432,580.6,430.7,579.3,430.6,577.3z"/>
	<path class="st0" d="M163.3,555.4c-1.4,1.5-2.9,3-4.3,4.6c-0.9,0.9-1.7,1.8-2.6,2.9c0.7,0.2,1.4,0.5,2.1,0.7
		c14.6,3.1,29.4,5.2,44.2,7c15,1.8,30,3.6,45.1,5c30.7,2.9,61.4,5,92.3,4.6c26.9-0.3,53.9,0,80.8,0c1,0,2,0,3.1,0
		c0.1-0.2,0.1-0.4,0.2-0.6c-5.1-5.1-10.2-10.2-15.3-15.4c0.7,0.3,1.5,0.4,2,0.9c4.6,4.5,9.1,9,13.6,13.6c0.4,0.4,0.6,1.1,1,1.9
		c-0.8,0.2-1.4,0.4-1.9,0.4c-10.6,0-21.2,0.5-31.7-0.1c-10-0.6-20-0.8-29.9-0.3c-16.8,0.8-33.5,0.2-50.3,0.4
		c-5.4,0.1-10.8-0.3-16.2-0.6c-5.5-0.3-11-0.7-16.4-1.2c-5.6-0.5-11.1-1.1-16.7-1.7c-2.5-0.2-5-0.4-7.5-0.6
		c-3.3-0.2-6.6-0.3-9.8-0.6c-4.5-0.4-9-1.1-13.5-1.6c-2.3-0.3-4.6-0.5-6.9-0.7c-5.7-0.6-11.5-1.1-17.2-1.8
		c-6.5-0.8-12.9-1.8-19.4-2.8c-6.4-1-12.8-1.9-19.1-3c-4.1-0.7-8.1-1.5-12.2-2.4c-0.5-0.1-0.9-0.5-1.8-1
		C157.8,560.3,159.8,557.1,163.3,555.4z"/>
	<path class="st1" d="M173,539c0.5-0.6,1-1.1,1.6-1.7c9.9-9.9,19.9-19.9,29.8-29.8c0.6-0.6,1.3-1.2,1.9-1.8
		c-0.4,0.8-0.7,1.8-1.4,2.4c-9.8,9.9-19.6,19.7-29.5,29.5C174.8,538.3,173.8,538.6,173,539z"/>
	<path class="st1" d="M196,522.8c-0.4,0.5-0.6,1.1-1.1,1.6c-8.6,8.7-17.3,17.3-26,26c-0.4,0.4-1.1,0.7-1.6,1.1
		c0.5-0.6,0.9-1.2,1.4-1.8c8.4-8.5,16.9-16.9,25.4-25.4C194.7,523.7,195.4,523.2,196,522.8z"/>
	<path class="st1" d="M402.5,548.3c0.4,0.2,0.9,0.3,1.2,0.6c3.4,3.3,6.7,6.5,10,9.8c-0.5-0.1-1.1-0.1-1.3-0.4
		C409.1,555.1,405.8,551.7,402.5,548.3z"/>
	<path class="st1" d="M413.7,558.8c3.3,3.5,6.7,7,10,10.5c-0.9-0.7-1.9-1.3-2.7-2.1c-2-1.9-4-3.9-5.9-6
		C414.4,560.5,414.1,559.6,413.7,558.8z"/>
	<path class="st1" d="M210.7,501.2c3.3-3.3,6.7-6.7,10-10c-0.2,0.4-0.3,0.9-0.6,1.2c-2.6,2.7-5.3,5.3-7.9,7.9
		C211.8,500.7,211.2,500.9,210.7,501.2z"/>
	<path class="st1" d="M329.1,492.2c-1.5-1.3-3.1-2.6-4.5-4c-0.8-0.7-1.7-1.6-0.7-2.7c0.9-0.9,2-0.9,3,0.1c-0.7,0.1-1.4,0.2-2.8,0.4
		c0.9,1.2,1.5,2,2.2,2.8C327.2,489.8,328.1,491,329.1,492.2z"/>
	<path class="st1" d="M207.6,510.5c-2.5,2.7-5.1,5.4-7.6,8.1c0.1-0.4,0.1-0.8,0.4-1.1C202.7,515.2,205.2,512.9,207.6,510.5z"/>
	<path class="st1" d="M405.9,561.5c-2.7-2.6-5.5-5.2-8.2-7.8c0.3,0,0.7-0.1,0.8,0.1C401,556.3,403.5,558.9,405.9,561.5z"/>
	<path class="st1" d="M162.6,548.9c2.5-2.4,5.1-4.8,7.6-7.2C168.1,544.6,166,547.5,162.6,548.9z"/>
	<path class="st1" d="M396,552.2c-2.4-2.2-4.7-4.4-7.1-6.6c0.3,0,0.7-0.1,0.8,0.1C391.9,547.8,394,550,396,552.2z"/>
	<path class="st1" d="M394.4,540.8c2.3,2.2,4.7,4.3,7,6.5c-0.6-0.3-1.3-0.4-1.7-0.9C397.9,544.5,396.1,542.6,394.4,540.8z"/>
	<path class="st0" d="M153.8,557.1c2.4-2.2,4.7-4.4,7.1-6.6C159,553.1,157.1,555.8,153.8,557.1z"/>
	<path class="st1" d="M220.8,491.2c0.4-0.3,0.9-0.9,1.3-1c0.7-0.1,1.6,0.1,2,0.5c0.3,0.3,0.3,1.4,0,1.8c-0.7,1.1-1.7,2-2.6,2.9
		c0.7-1.2,1.3-2.4,2.2-4C222.6,491.3,221.7,491.3,220.8,491.2z"/>
	<path class="st1" d="M387.9,544.6c-2.2-2-4.3-4-6.5-6c0.3,0,0.7-0.1,0.8,0.1C384.1,540.6,386,542.6,387.9,544.6z"/>
	<path class="st1" d="M380.3,537.6c-2.2-2-4.3-4-6.5-6c0.3,0,0.7-0.1,0.8,0.1C376.6,533.6,378.5,535.6,380.3,537.6z"/>
	<path class="st1" d="M387.4,534.4c1.9,1.8,3.9,3.5,5.8,5.3C390.6,538.7,389.2,536.4,387.4,534.4z"/>
	<path class="st1" d="M215.2,502.4c-1.8,1.9-3.5,3.9-5.3,5.8C210.9,505.6,213.2,504.1,215.2,502.4z"/>
	<path class="st1" d="M372.8,530.6c-2-1.8-3.9-3.6-5.9-5.4c0.5,0.2,1.2,0.2,1.6,0.5C369.9,527.3,371.3,529,372.8,530.6z"/>
	<path class="st1" d="M365.8,524.2c-1.8-1.6-3.6-3.2-5.4-4.9C363.1,520,364.5,522.1,365.8,524.2z"/>
	<path class="st1" d="M376.9,525.1c1.6,1.4,3.1,2.7,4.7,4.1C379.4,528.6,378.3,526.7,376.9,525.1z"/>
	<path class="st1" d="M382.2,529.7c1.6,1.4,3.1,2.8,4.7,4.1C384.6,533.2,383.5,531.4,382.2,529.7z"/>
	<path class="st1" d="M360,519c-1.6-1.4-3.2-2.8-4.7-4.3C357.6,515.2,358.9,517,360,519z"/>
	<path class="st1" d="M423.6,569.2c1.4,1.6,2.7,3.1,4.1,4.7C425.9,572.7,424,571.6,423.6,569.2z"/>
	<path class="st1" d="M349.5,509.7c-1.4-1.2-2.8-2.5-4.2-3.7C347.5,506.3,348.6,507.9,349.5,509.7z"/>
	<path class="st1" d="M354.1,513.8c-1.4-1.2-2.8-2.5-4.2-3.7C352.1,510.4,353.3,511.9,354.1,513.8z"/>
	<path class="st1" d="M372.3,521c1.4,1.2,2.7,2.3,4.1,3.5C374.4,524.1,373.4,522.4,372.3,521z"/>
	<path class="st1" d="M220.4,496.6c-1.2,1.3-2.4,2.7-3.6,4C217.3,498.7,218.9,497.7,220.4,496.6z"/>
	<path class="st1" d="M368.2,517.5c1.2,1,2.3,2,3.5,3C369.9,520.1,369.1,518.8,368.2,517.5z"/>
	<path class="st1" d="M364.1,514c1.2,1,2.3,2,3.5,2.9C365.9,516.7,365,515.3,364.1,514z"/>
	<path class="st1" d="M356.6,507.5c1.1,1,2.3,2,3.4,3C358.3,510.2,357.4,509,356.6,507.5z"/>
	<path class="st1" d="M344.8,505.6c-1.2-1-2.4-2.1-3.6-3.1C343.2,502.6,344.1,504,344.8,505.6z"/>
	<path class="st1" d="M340.8,502.1c-1.2-1-2.4-2.1-3.6-3.1C339.1,499.1,340,500.5,340.8,502.1z"/>
	<path class="st1" d="M333.2,495.6c-1.2-1-2.4-2-3.6-3.1C331.6,492.7,332.4,494.1,333.2,495.6z"/>
	<path class="st0" d="M427.7,573.9c1,1.2,2,2.3,3,3.5C429.1,576.7,427.8,575.8,427.7,573.9z"/>
	<path class="st1" d="M360.6,511.1c1,0.8,1.9,1.6,2.9,2.4C362.1,513.3,361.3,512.2,360.6,511.1z"/>
	<path class="st1" d="M353.6,505.3c1,0.8,2,1.5,3,2.3C355.1,507.6,354.4,506.4,353.6,505.3z"/>
	<path class="st1" d="M350.2,502.3c0.9,0.8,1.9,1.6,2.8,2.5C351.6,504.5,350.7,503.6,350.2,502.3z"/>
	<path class="st1" d="M347.3,499.9c1,0.8,2,1.6,3,2.4C348.6,502.4,347.9,501.2,347.3,499.9z"/>
	<path class="st1" d="M344.4,497.6c1,0.8,2,1.6,3,2.4C345.7,500,345,498.9,344.4,497.6z"/>
	<path class="st1" d="M336.7,498.6c-1-0.8-2-1.7-3-2.5C335.4,496.1,336.2,497.2,336.7,498.6z"/>
	<path class="st1" d="M339.1,493.6c1,0.8,2,1.5,3,2.3C340.5,496,339.8,494.8,339.1,493.6z"/>
	<path class="st1" d="M342.1,495.8c0.8,0.6,1.6,1.2,2.3,1.8C343.1,497.7,342.5,497,342.1,495.8z"/>
	<path class="st1" d="M336.8,492c0.8,0.5,1.6,1.1,2.4,1.6C337.9,493.7,337.3,492.9,336.8,492z"/>
	<path class="st1" d="M332.7,489c0.8,0.6,1.6,1.1,2.4,1.7C334.3,490.2,333.5,489.6,332.7,489z"/>
	<path class="st1" d="M461.9,446.5c-0.8,1.4-1.7,2.8-2.5,4.2c-7.1,11.3-17.2,19-29.2,24.4c-1,0.4-1.9,0.9-2.9,1.3
		c-0.1,0-0.1,0.1-0.1,0.3c2.4,2.4,6.1,3.6,7.4,7.4c-2,0.8-3.4,0.1-4.7-0.6c-3.3-1.8-6.9-3.2-10.6-3.9c-0.6-0.1-1.2-0.3-1.7-0.3
		c-4.2,0.4-8.5,0.6-12.7,1.4c-13.7,2.7-26.8,0.9-39.4-4.9c-1.9-0.9-3.8-1.4-5.9-1.4c-10.6-0.1-21.1-0.2-31.7-0.3
		c-1.7,0-3.5,0-5.2-0.1c-1.3-0.1-2.5-0.4-2.9-2.2c11.6-1.5,22.9-1.8,34.9-1.7c-0.9-0.8-1.3-1.3-1.9-1.7c-5.9-4.5-11.1-9.7-15.6-15.6
		c-6.7-8.9-10.9-18.8-11.9-29.9c-1.6-18.7,4.9-34.7,17.5-48.2c8.4-9,18.7-15,30.9-17.4c1.5-0.3,3-0.6,4.6-0.8
		c4.1-0.1,8.1-0.1,12.2-0.2c12.8,0.8,25.2,3.8,37.2,8.3c1.3,0.5,2.7,0.9,4.1,1.3c2.1,1,4.2,1.9,6.3,2.9c19,9.5,28.9,25,30.5,46
		c0.5,6.2,0,12.4-1.4,18.5C465.3,437.6,463.6,442,461.9,446.5z M349.6,457c5.4,6,12.5,8.8,20.2,10c1.6,0.3,3.2,0.8,4.8,0.9
		c5.3,0.3,10.3,1.4,15.4,2.9c3.5,1,7.1,1.8,10.7,2.5s7.1,0.5,10.7-0.4c9.2-2.2,17.9-5.8,26-10.6c7-4.1,12-10.1,14.5-17.9
		c1-3.2,2-6.5,2.8-9.8c1.2-5.1,1.3-10.3,0.3-15.5c-0.1-5.8-1-11.5-3.5-16.9c-2.1-6.2-4.6-12.3-9.3-16.9c-4.9-4.8-9.8-9.7-15.7-13.4
		c-12.1-7.7-25-11.9-39.5-9.2c-10.3,1.9-19.8,5.6-28.3,11.6c-8.1,5.8-14.7,13.2-20.2,21.5c-4.1,6.2-6.4,13-6.7,20.5
		c-0.4,9,2,17.5,5.9,25.5C340.6,447.7,344.3,453,349.6,457z"/>
	<path class="st1" d="M198.8,473.8c7.7,0,15.5,0,23.2,0.1c0.9,0,1.7,0.1,2.6,0.2c0.9,0.1,1.7,0.5,1.7,1.6c0,1-0.7,1.6-1.6,1.7
		c-1.2,0.2-2.5,0.4-3.7,0.4c-7.7,0.3-15.5,0.7-23.2,0.6c-24.8-0.1-49.6-0.3-74.4-0.5c-1.8,0-3.6-0.4-5.4-0.7
		c-0.7-0.9,0.3-1.2,0.6-1.7c3.8-0.4,7.7-0.9,11.5-1.1c6.9-0.2,13.8-0.2,20.7-0.2c0.9,0,1.9,0,2.9-0.5c-0.7-0.3-1.4-0.7-2.2-1
		c-8-3.2-15.4-7.3-22-12.9c-13.9-11.7-21.5-26.7-22.8-44.9c-0.4-6.3,0.3-12.5,2.5-18.3c7.9-20.9,22.4-34.6,44.2-40.1
		c9.1-2.3,18.3-1.4,27.3,1c9.6,2.5,18.4,6.7,26.4,12.5c12.1,8.8,20,20.4,22.9,35.2c1.1,5.6,0.9,11.2,0.1,16.8
		c-0.1,1-0.3,1.9-0.4,2.9c-0.1,0.3-0.4,0.7-0.4,1.1c-4,21.8-16.1,37.3-36.2,46.6c-0.6,0.3-1.1,0.5-1.7,0.8c0,0.1,0.1,0.2,0.1,0.3
		C193.8,473.8,196.3,473.8,198.8,473.8z M138.8,454.7c3.8,2.7,7.6,5.3,12.2,6.4c3.9,1.6,7.9,3.1,11.8,4.8c5.3,2.3,10.8,2.7,16.5,1.8
		c7.6-1.2,14.3-4.6,20.7-8.8c11.7-7.6,18.7-18.3,21-32c0.7-4.2,0.9-8.5,0.8-12.7c0-3-0.9-6.1-1.4-9.1c-0.4-1.1-0.8-2.3-1.2-3.4
		c-0.1-0.3-0.1-0.6-0.2-0.8c-4.1-9.5-10.4-17.1-19.4-22.5c-8.2-4.9-16.9-8.7-25.5-12.7c-7.1-3.3-14.7-3.9-22.2-2.1
		c-8.6,2.1-16.4,6.2-22.8,12.3c-6.1,5.8-9.4,13.2-9.2,21.9c0,1.5-0.2,3.1-0.6,4.6c-2.7,10.8-1.6,21.2,2,31.7
		C124.7,443.2,131,449.5,138.8,454.7z"/>
	<path class="st1" d="M276.3,508.3c-1,6.4-2.6,12.7-5.9,18.5c-1.7,3.1-3.8,5.9-6.5,8.1c-6.2,5.1-13.1,3.6-16.4-3.7
		c-1.1-2.5-1.9-5.3-2.3-8.1c-1.4-9.1-1.3-18.2,0.7-27.2c0.2-0.9,0.5-1.9,1-2.7c0.8-1.3,2.4-1.3,3,0.1c0.5,1.2,0.9,2.6,0.8,3.9
		c-0.1,3.9-0.5,7.7-0.8,11.6c-0.4,5.6-0.4,11.3,0.8,16.8c0.4,1.9,1.1,3.7,2.1,5.4c1.5,2.6,4.3,3.3,6.7,1.5c1.8-1.2,3.4-2.9,4.7-4.7
		c3.4-4.5,5.1-9.8,6.2-15.2c1.9-8.9,2.7-18,2.9-27.1c0.2-6.2,0.3-12.4,0.5-18.6c0-0.7-0.1-1.4,0.2-2c1-2.3,0.2-4-1.4-5.7
		c-0.7-0.7-1.1-1.8-1.6-2.8c-2-4.5-3.9-9.1-5.8-13.6c-1.3-3.3,0-5.5,3.5-5.5c4.6-0.1,9.1,0.1,13.7,0.2c1.7,0,3.5,0.4,5.2,0.3
		c2.1,0,4,0.6,5.7,1.8c1.4,1,1.8,1.8,1.3,3.4c-0.3,1-0.8,2-1.4,2.9c-3.8,6.2-7.7,12.3-11.6,18.5c-0.6,0.9-0.9,1.8-0.9,2.9
		c0.8,15.6,1.5,31.2,2.5,46.8c0.3,4.6,1.3,9.2,2.3,13.7c0.5,2.2,1.6,4.4,2.8,6.3c2.9,4.6,6.2,4.5,8.6-0.3c1.4-2.7,2.3-5.8,3-8.7
		c1.9-8,2.3-16.3,3-24.5c0.3-3.9,0.8-7.7,1.2-11.6c0.1-0.8,0.3-1.6,0.6-2.2c0.2-0.4,0.9-0.9,1.3-0.9c0.5,0,1.2,0.6,1.3,1
		c0.4,1.4,0.8,2.8,0.7,4.3c-0.1,3.7-0.3,7.4-0.6,11c-0.8,8.5-1.3,17-3.5,25.3c-0.7,2.8-1.8,5.5-3,8.2c-0.7,1.5-1.7,2.8-2.9,4
		c-3.1,3.1-7,3.3-10.6,0.9c-2.6-1.7-4.5-4.1-5.6-6.9c-1.4-3.6-2.6-7.3-3.4-11.1c-0.8-3.7-1-7.5-1.4-11.2c0.2-1.5,0.1-3-0.2-4.5
		c-0.2,0-0.4,0-0.6,0C276.5,507.2,276.4,507.8,276.3,508.3z M278.8,459.5c3.3-5.3,6.2-9.9,9.3-14.9c-5.5-0.4-10.5-0.7-16.1-1.1
		C274.3,449,276.4,453.9,278.8,459.5z"/>
	<path class="st1" d="M132,291.2c-1.5-0.6-2.4-0.9-3.2-1.3c-2.4-1.6-4.9-3.1-7.2-4.9c-7.3-5.5-14.5-11-21.8-16.5
		c-0.7-0.6-1.5-1.1-2.7-1.9c0,1.3,0,2.1,0,3c0.1,15,0.8,30,2.8,45c0.6,4.4,1.5,8.8,2.4,13.1c0.3,1.7,1.1,3.2,1.9,5.2
		c1.5-0.9,2.7-1.5,3.7-2.3c2.6-2.1,5.1-4.4,7.8-6.6c6.2-5,12.3-10.1,18.6-14.9c2.4-1.8,5.1-3.2,7.8-4.5c1.2-0.6,2.6-0.7,3.9-0.7
		c1.3,0,2.2,0.8,2.3,2.1c0.1,1.3-0.7,2-2,2.5c-1.6,0.6-3.3,1.2-4.6,2.2c-5.6,4.2-11.2,8.4-16.6,12.7c-3.9,3.1-7.5,6.5-11.3,9.6
		c-1.6,1.4-3.4,2.7-5.2,3.7c-4.5,2.6-8.1,1.5-10.1-3.3c-1.2-2.8-2-5.9-2.6-8.9c-2.3-11.5-3.3-23.2-4-34.9c-0.5-7.3-0.7-14.7-1-22.1
		c-0.1-1.7-0.1-3.5,0.2-5.2c0.6-3.4,3.2-4.6,6.3-2.9c0.9,0.5,1.8,1.1,2.6,1.8c8.8,7.5,17.7,15.1,26.5,22.7c1.7,1.5,3.1,3.4,4.7,5.2
		C131.3,289.5,131.4,290,132,291.2z"/>
	<path class="st1" d="M438.4,516.3c-2.7,0.5-4.7-0.2-6.6-0.9c-3.6-1.5-7.1-3.1-10.7-4.6c-27.5-11.6-55.5-21.9-84.4-29.6
		c-1.4-0.4-2.8-0.7-4.2-1.1c-0.4-0.2-1.1-0.9-1-1.2c0.1-0.5,0.7-1.3,1.2-1.4c1.1-0.2,2.3-0.4,3.4-0.1c5.5,1.1,11,2.1,16.4,3.6
		c20.8,5.7,41.2,12.5,60.9,21c6.8,2.9,13.3,6.8,19.9,10.3C435.3,513,436.9,514.2,438.4,516.3z"/>
	<path class="st0" d="M429.9,269.5c0.9-1,1.8-2,2.7-2.9c1.4-0.5,2.4-1.3,2.6-2.9c9.6-10.9,19.4-21.6,30.9-30.6
		c1.7-1.4,3.7-2.6,5.7-3.4c3.9-1.6,6.7-0.1,7.7,4c0.6,2.5,0.9,5.2,1,7.8c0.3,11.2-1.1,22.3-3.1,33.2c-1.5,7.8-3.3,15.5-4.9,23.3
		c-0.2,1.1-0.7,2.2-1,3.3c-0.3,0.9-0.8,2-2,1.6c-1.2-0.3-1-1.5-0.9-2.5c0.2-1.5,0.5-3.1,0.8-4.6c2.1-11.7,4.4-23.4,6.3-35.2
		c1.2-7.1,1.7-14.2,1.5-21.4c-0.1-1.5-0.2-3.1-0.5-4.6c-0.5-2.3-1.4-2.7-3.5-1.6c-1.6,0.8-3.1,1.7-4.4,2.8
		c-5.6,4.8-11.1,9.6-16.6,14.6c-3.5,3.2-6.8,6.6-10.2,10c-2.5,1.6-4.7,3.5-6.1,6.2c-2.7,2.6-5.3,5.2-8,7.8c-0.3-0.5-0.5-1-0.8-1.4
		c-0.1-0.2,0-0.3,0.1-0.4C428.6,272.1,429.7,271.2,429.9,269.5z"/>
	<path class="st0" d="M116.7,506.6c1.6-1.4,3.7-2,5.7-2.5c12.1-2.7,24.1-5.6,36.3-8.1c16.8-3.4,33.7-6.5,50.5-9.7
		c2.4-0.4,4.8-0.7,7.2-0.9c0.9-0.1,1.8,0.3,2.6,0.5c-0.1,2-1.5,2.1-2.5,2.3c-3.5,0.9-7,1.7-10.5,2.4c-26.1,5.2-52.3,10.3-78.4,15.4
		c-2.5,0.5-5,0.9-7.5,1.2c-1.1,0.1-2.2,0-3.4,0C116.7,507.1,116.7,506.9,116.7,506.6z"/>
	<path class="st2" d="M273,323.7c0.5-0.9,0.9-1.9,1.5-2.6c0.7-0.8,1.6-1.4,2.5-2c4.4-2.7,9.2-4.4,14.4-4.7c0.8-0.1,1.8,0.1,2.5,0.4
		c2.1,0.9,2.8,2.6,2,4.7c-1.2,3.1-3.6,5.1-6.4,6.4c-3,1.4-6.3,2.8-9.5,3.2C276.7,329.7,273.2,328.1,273,323.7z"/>
	<path class="st2" d="M271.7,315.6c-2.4,0-4.3-1.8-4.2-4.2c0-1.4,0.2-2.9,0.8-4.2c1.7-3.9,3.7-7.7,6.9-10.6c1-0.9,2.2-1.6,3.4-2.2
		c1.8-0.8,3.6,0.2,3.9,2.1c0.1,0.7,0.2,1.4,0,2c-1.2,5-2.7,9.9-5.7,14.2C275.4,314.6,273.7,315.6,271.7,315.6z"/>
	<path class="st2" d="M446.8,532.2c0-2,0-3.4,0-4.7c0-1.8,0.6-3.3,2.4-3.9c1.8-0.6,3,0.6,3.9,1.8c1.8,2.2,2.4,4.9,2.8,7.5
		c0.5,3.5,0.6,7.1,0.7,10.7c0.1,1.7-0.4,3.3-1.7,4.5c-1.3,1.3-2.8,1.3-4.1,0c-0.8-0.8-1.4-1.9-1.8-2.9
		C447.6,540.8,446.3,536.3,446.8,532.2z"/>
	<path class="st2" d="M283,348.8c-5.3-0.6-9.6-2.8-12-7.7c-1.8-3.7,0.6-7.3,4.7-6.8c2,0.2,4.1,1.1,5.9,2.1c2.1,1.2,4.2,2.7,5.6,4.9
		c1.2,1.9,1.8,3.6,0.7,5.7C286.8,348.9,284.9,348.8,283,348.8z"/>
	<path class="st2" d="M474.7,533.3c-0.1,2.7-1.3,3.5-3.1,2.4c-2.5-1.7-4.9-3.4-7.1-5.5c-3-3-6.8-5.1-9.1-8.9c-0.3-0.5-0.8-1-0.8-1.5
		c-0.1-1.1-0.4-2.5,0.2-3.3c0.7-1.1,2.2-1.3,3.7-1c4,0.8,6.7,3.5,9.1,6.4c2.2,2.8,4.1,5.8,6.1,8.8
		C474.3,531.6,474.5,532.8,474.7,533.3z"/>
	<path class="st2" d="M97,489.5c1.6,0.1,3.1,0.4,4.1,1.9c1.3,2.2,0.3,4.5-2.5,5.8c-1.8,0.8-3.6,1.4-5.4,2c-3.1,1-6.3,2-9.4,3
		c-0.5,0.1-0.9,0.3-1.4,0.3c-1.6,0.1-3.3,0.2-4-1.5s0.5-2.7,1.6-3.7c3.8-3.6,8.5-5.6,13.5-7C94.5,489.9,95.7,489.7,97,489.5z"/>
	<path class="st0" d="M450.5,324.6c-0.4,0.5-0.7,1.3-1.3,1.6c-0.5,0.2-1.2-0.1-1.9-0.2c-0.2-0.1-0.4-0.4-0.6-0.6
		c-5.2-6-11.5-10.7-17.6-15.5c-1.7-1.3-3.3-2.7-4.9-4.1c-0.6-0.5-1.2-1-1.6-1.7c-0.4-0.8-1-1.9-0.7-2.6c0.5-1.2,1.9-0.7,2.8-0.3
		c1.4,0.6,2.8,1.3,4.1,2.2c6.8,4.5,13,9.8,18.4,15.9c0.9,1,1.7,2.1,2.4,3.3C450.1,323,450.2,323.6,450.5,324.6z"/>
	<path class="st2" d="M257.9,554.7c-0.6,1.4-0.9,2.5-1.5,3.5c-1.6,2.8-3.5,5.3-5.9,7.5c-1.3,1.2-2.4,2.5-3.7,3.6
		c-1.5,1.3-2.9,1.5-3.9,0.7s-1.5-2.4-0.8-4c1.6-3.2,3.3-6.3,5.2-9.3c1.1-1.7,2.5-3.2,4-4.5c1.2-1.1,2.9-1.5,4.3-0.6
		C256.6,552.3,257.2,553.7,257.9,554.7z"/>
	<path class="st3" d="M198.8,473.8c-2.5,0-5,0-7.4,0c0-0.1-0.1-0.2-0.1-0.3c0.6-0.3,1.1-0.5,1.7-0.8c20.1-9.3,32.2-24.8,36.2-46.6
		c0.1-0.4,0.3-0.7,0.4-1.1c0.5,6.6-0.9,12.9-3.6,18.8c-2.7,5.9-6.3,11.3-10.4,16.3c-4,4.9-8.9,8.8-14.4,11.9
		C200.3,472.6,199.6,473.3,198.8,473.8z"/>
	<path class="st2" d="M485.8,514.6c-2.1-0.4-4.6-0.8-7-1.5c-3.1-1-6.2-2.1-9.2-3.4c-1.2-0.5-2.2-1.5-3.1-2.5c-0.9-0.9-0.7-2.9,0-3.8
		c0.9-1.1,1.9-1.1,3.1-0.6c5.7,2.3,11.5,4.6,17.2,7c0.3,0.1,0.5,0.4,0.7,0.5c1.1,0.7,2.4,1.3,1.8,2.9
		C488.9,514.5,487.5,514.6,485.8,514.6z"/>
	<path class="st2" d="M92.6,511.7c-1.8,0.1-2.6-1-2-2.6c0.3-0.7,0.8-1.3,1.3-1.9c2.9-2.9,5.7-5.8,8.6-8.7c1.5-1.5,3.4-1.9,4.7-1
		c1.2,0.9,1.9,3,1,4.7c-0.7,1.4-1.6,3-2.9,3.9c-3.2,2-6.6,3.6-9.9,5.3C93.1,511.6,92.8,511.6,92.6,511.7z"/>
	<path class="st2" d="M293.9,563.5c-0.5,0.9-0.9,2.1-1.7,2.5c-0.6,0.3-2,0-2.6-0.6c-3-3.3-6.1-6.5-7.7-10.7
		c-0.6-1.5,0.1-3.7,1.2-4.4c1.4-1,3-1,4.5,0.5c1.4,1.4,2.7,3.1,3.5,4.9C292.3,558.1,293,560.8,293.9,563.5z"/>
	<path class="st2" d="M113.6,514.2c-0.6,1.1-0.9,2.3-1.7,3.2c-2.9,3.3-6.2,6.1-10.1,8.2c-1,0.5-2.2,1.2-3.2,0.1
		c-0.8-1-0.6-2.1,0.1-3.2c2.6-3.7,5.3-7.4,8.7-10.4c1.1-1,2.4-1.7,3.9-1C112.6,511.7,113.4,512.5,113.6,514.2z"/>
	<path class="st2" d="M269.8,562.3c0-0.9,0-1.7,0-2.6c0-0.5,0-1,0-1.4c0.2-1.9,1.5-3.3,3-3.4c1.1-0.1,3.1,1.8,3.3,3.2
		c0.5,3.5-0.1,6.9-2,9.9c-0.4,0.7-1.6,1.2-2.4,1.2c-0.6,0-1.5-1-1.6-1.7c-0.3-1.7-0.3-3.4-0.5-5.1
		C269.7,562.3,269.8,562.3,269.8,562.3z"/>
	<path class="st4" d="M431.6,365.7c-1.4-0.4-2.8-0.8-4.1-1.3c-12-4.5-24.3-7.5-37.2-8.3c0-0.2,0-0.3,0-0.5c3.6,0,7.2-0.1,10.8,0.1
		c6.6,0.5,13,2.1,19.1,4.5c3.3,1.3,6.6,2.8,9.8,4.3C430.6,364.8,431.1,365.3,431.6,365.7z"/>
	<path class="st5" d="M73.6,424.3c-0.1-5.9,1.1-11.6,2.1-17.3c0.2-1.2,0.6-2.4,0.9-3.5c-0.3,3.4-0.5,6.7-0.8,10.1
		c-0.5,6.4-1.1,12.7-1.4,19.1c-0.4,9.3-0.6,18.6-1,27.8c0,0.7-0.2,1.3-0.3,2c-0.1-4.9-0.1-9.9-0.2-14.8c0-1.1,0-2.3,0-3.4
		c0.2-0.6,0.5-1.2,0.5-1.9C73.6,436.3,73.6,430.3,73.6,424.3z"/>
	<path class="st6" d="M101.5,540.9c-3.1-2.4-6.4-4.6-9.2-7.4c-3-2.9-5.9-6.1-7.7-10c0-0.5,0.1-0.9,0.1-1.4c0.4,0.4,0.8,0.8,1.1,1.3
		c4.1,6.3,9.2,11.5,15.3,15.9c0.6,0.4,1.2,1,1.8,1.5C102.5,540.8,102,540.8,101.5,540.9z"/>
	<path class="st7" d="M461.9,446.5c1.7-4.5,3.4-8.9,5.2-13.4c0,2.5,0.2,5,0.1,7.5C466.9,444.2,465.3,445.9,461.9,446.5z"/>
	<path class="st8" d="M221.5,266.7c-1.8,0.4-3.5,0.9-5.3,1c-6.8,0.4-13.5,1.7-20.1,3.4c-0.8,0.2-1.7,0.1-2.6,0.2
		c0.5-0.2,1-0.5,1.5-0.7c4.7-1.1,9.5-2.2,14.2-3.3c1,0,2.1-0.1,3.1-0.1C215.5,267,218.5,266.9,221.5,266.7z"/>
	<path class="st9" d="M209.3,267.3c-4.7,1.1-9.5,2.2-14.2,3.3c-0.5,0.1-1,0.4-1.5,0.7c-1.1-0.2-2.3,1.2-3.4,0
		c5.2-1.4,10.3-2.9,15.5-4.3c1.2-0.3,2.5-0.3,3.7-0.4C209.3,266.9,209.3,267.1,209.3,267.3z"/>
	<path class="st10" d="M73,447.6c0.1,4.9,0.1,9.9,0.2,14.8c0,5.6,0,11.1-0.1,16.7c-0.2-0.7-0.6-1.4-0.6-2.1c0-9.2,0-18.3,0-27.5
		C72.6,448.9,72.9,448.3,73,447.6z"/>
	<path class="st11" d="M209.3,267.3c0-0.2,0-0.4,0-0.7c5.8-0.4,11.7-0.8,17.5-1.1c-1.7,0.4-3.5,0.8-5.2,1.2c-3,0.2-6.1,0.3-9.1,0.5
		C211.4,267.3,210.3,267.3,209.3,267.3z"/>
	<path class="st12" d="M81.8,517.5c-0.2-0.2-0.6-0.3-0.7-0.5c-2.5-5.6-4.6-11.3-5.7-17.4c-0.1-0.4,0.1-0.9,0.1-1.4
		c0.3,0.9,0.6,1.8,0.9,2.7c1.6,4.6,3.2,9.3,4.8,13.9C81.4,515.7,81.6,516.7,81.8,517.5z"/>
	<path class="st13" d="M349,273.5c4-0.8,7.8-0.1,11.6,0.5c0,0.2,0,0.5-0.1,0.7C356.7,274.4,352.8,273.9,349,273.5z"/>
	<path class="st14" d="M390.3,355.7c0,0.2,0,0.3,0,0.5c-4.1,0.1-8.1,0.1-12.2,0.2c0.8-0.2,1.6-0.6,2.4-0.6
		C383.8,355.6,387.1,355.7,390.3,355.7z"/>
	<path class="st15" d="M435.7,266.5c1.4-2.7,3.5-4.6,6.1-6.2C439.8,262.4,437.7,264.5,435.7,266.5z"/>
	<path class="st15" d="M426.9,272.8c0.3,0.5,0.5,1,0.8,1.4c-0.9,1.3-2,2.2-3.7,3.4C424.3,275.2,425.5,273.9,426.9,272.8z"/>
	<path class="st16" d="M84.8,522.1c0,0.5-0.1,0.9-0.1,1.4c-1.2-1.2-2.2-2.5-2.2-4.4C84.1,519.5,84.2,520.9,84.8,522.1z"/>
	<path class="st17" d="M101.5,540.9c0.5,0,0.9-0.1,1.4-0.1c1.2,0.8,2.3,1.6,3.5,2.3C104.8,542.3,103.1,541.6,101.5,540.9z"/>
	<path class="st18" d="M276.3,508.3c0.1-0.6,0.1-1.1,0.2-1.7c0.2,0,0.4,0,0.6,0c0.3,1.5,0.4,3,0.2,4.5
		C277,510.2,276.7,509.3,276.3,508.3z"/>
	<path class="st19" d="M423.3,278.9c-0.5,0.5-1.1,0.9-2.1,1.8c0.1-1.7,0.6-2.2,1.5-2.4C423,278.5,423.2,278.7,423.3,278.9z"/>
	<path class="st15" d="M429.9,269.5c-0.2,1.7-1.2,2.6-2.8,3C428,271.5,428.9,270.5,429.9,269.5z"/>
	<path class="st15" d="M435.1,263.7c-0.2,1.6-1.2,2.4-2.6,2.9C433.4,265.6,434.3,264.7,435.1,263.7z"/>
	<path class="st20" d="M484.5,202.4c0.7-0.1,1.5-0.1,2.5-0.2c-0.9,1.4-1.7,0.8-2.5,0.9C484.5,202.9,484.5,202.7,484.5,202.4z"/>
	<path class="st21" d="M118.5,475.6c-0.3,0.5-1.3,0.8-0.6,1.7c-0.6-0.2-1.1-0.3-1.7-0.5c0-0.2,0-0.4,0-0.6
		C116.9,476,117.7,475.8,118.5,475.6z"/>
	<path class="st22" d="M508.2,197.9c-0.6-0.1-1.1-0.3-1.7-0.4c0-0.2,0.1-0.4,0.1-0.5c0.6,0.1,1.1,0.2,1.7,0.2
		C508.2,197.4,508.2,197.6,508.2,197.9z"/>
	<path class="st10" d="M73.6,424.3c0,6,0,12,0,18c0,0.6-0.3,1.2-0.5,1.9c0-6,0-12,0.1-18C73.1,425.6,73.4,425,73.6,424.3z"/>
	<path class="st23" d="M455,419.1c1.1,5.2,1,10.4-0.3,15.5c-0.8,3.3-1.8,6.5-2.8,9.8c-2.5,7.8-7.5,13.8-14.5,17.9
		c-8.2,4.8-16.8,8.4-26,10.6c-3.5,0.9-7.1,1.1-10.7,0.4s-7.2-1.5-10.7-2.5c-5-1.5-10.1-2.6-15.4-2.9c-1.6-0.1-3.2-0.6-4.8-0.9
		c1.5-0.1,3-0.2,4.6-0.2c-0.2-3.7,2.6-5.4,4.8-7.5c-1.1-1.9-2.2-3.8-3.1-5.7c-1.4-2.8-2.8-5.5-4-8.4c-2.4-5.7-3-11.7-2.9-17.9
		c0.1-6,1.8-11.4,4.8-16.5c0.8-1.3,0.7-2.2,0-3.4c2,0.7,3.9,1.8,5.9,2.1c6.1,1.1,11.4-0.6,15.4-5.3c4-4.7,4.5-10.1,2.2-15.8
		c-0.3-0.8-0.7-1.6-1-2.4c0.6,0.8,1.5,1.5,1.8,2.4c0.7,2,1.2,4,1.7,6c2.3,0.3,4.6,0.6,6.9,0.8c6.5,0.5,12.7,1.7,18.7,4.5
		c5.7,2.7,10.7,6.1,13.8,11.8c2.1,3.9,4.1,7.9,6.2,11.8c0.4,0.8,0.9,1.6,1.5,2.7c1.8-3.1,4.1-5,7.5-4.8
		C454.8,420.4,454.9,419.7,455,419.1z"/>
	<path class="st24" d="M349.6,457c-5.3-4-9-9.3-11.9-15.2c-3.9-8-6.3-16.5-5.9-25.5c0.3-7.4,2.6-14.3,6.7-20.5
		c5.5-8.3,12.1-15.8,20.2-21.5c8.5-6,18-9.7,28.3-11.6c14.5-2.7,27.4,1.6,39.5,9.2c5.8,3.7,10.8,8.5,15.7,13.4
		c4.7,4.7,7.2,10.7,9.3,16.9c-0.1,0.5-0.2,0.9-0.3,1.7c-1.5-1.2-2.9-2.2-4.1-3.4c-3.3-3.2-6.4-6.5-9.7-9.6c-2.2-2.1-4.3-4.3-6.7-5.9
		c-10.5-7-22-11.6-34.7-12.9c-2-0.2-4.1,0.1-6,0.4c-4.7,0.8-8.6,3.9-12.9,5.7c-0.1,0-0.1,0.2-0.1,0.3c-1.7,1.2-3.5,2.3-5.2,3.5
		c-0.3,0-0.6,0-0.8,0.1c-3,1.6-5.9,3.3-8.8,5c-3.4,1.9-6.7,3.9-9.1,7c-6.8,8.8-10.1,18.8-10.3,29.8c-0.1,4.3,0.4,8.7,1.2,12.9
		c1,5.6,2.9,11,6.1,15.8C350.8,453.6,350.6,455.8,349.6,457z"/>
	<path class="st25" d="M349.6,457c1-1.2,1.2-3.4,0.4-4.5c-3.3-4.8-5.1-10.2-6.1-15.8c-0.8-4.2-1.2-8.6-1.2-12.9
		c0.2-11,3.6-21,10.3-29.8c2.4-3.1,5.8-5.1,9.1-7c2.9-1.7,5.9-3.3,8.8-5c0.2-0.1,0.6-0.1,0.8-0.1c-0.6,0.8-1.3,1.7-1.9,2.5
		c-4.8,6.5-4,15.3,1.8,20.8c0.8,0.7,1.6,1.4,2.4,2.1c0.7,1.1,0.8,2,0,3.4c-3,5.1-4.7,10.5-4.8,16.5c-0.1,6.2,0.5,12.2,2.9,17.9
		c1.2,2.9,2.6,5.6,4,8.4c1,1.9,2,3.7,3.1,5.7c-2.2,2.2-5,3.8-4.8,7.5c-1.6,0.1-3.1,0.2-4.6,0.2C362,465.8,355,463,349.6,457z
		 M359.6,419.8c3.9,0,8-2.4,9.3-5.4c1.6-3.8-0.1-6.7-2.4-9.5c-0.1-0.1-0.3-0.3-0.4-0.4c-2.9-3.1-7.4-3.9-11.1-1.9s-5.5,6.3-4.4,10.4
		S355.3,419.9,359.6,419.8z"/>
	<path class="st25" d="M377,378.5c0-0.1,0.1-0.2,0.1-0.3c4.3-1.9,8.1-4.9,12.9-5.7c2-0.3,4.1-0.6,6-0.4c12.6,1.3,24.1,5.9,34.7,12.9
		c2.5,1.6,4.6,3.8,6.7,5.9c3.3,3.2,6.4,6.4,9.7,9.6c1.2,1.2,2.6,2.2,4.1,3.4c0.1-0.8,0.2-1.3,0.3-1.7c2.5,5.3,3.4,11,3.5,16.9
		c-0.1,0.7-0.2,1.3-0.3,2.2c-3.4-0.1-5.7,1.7-7.5,4.8c-0.6-1.1-1.1-1.9-1.5-2.7c-2.1-3.9-4-7.9-6.2-11.8c-3.1-5.7-8.1-9.1-13.8-11.8
		c-5.9-2.8-12.2-4.1-18.7-4.5c-2.3-0.2-4.6-0.5-6.9-0.8c-0.5-2-1-4-1.7-6c-0.3-0.9-1.2-1.6-1.8-2.4c-0.8-1.1-1.6-2.1-2.5-3.2
		c-3.8-4.8-9.4-6.6-15.2-4.9C378.3,378.2,377.6,378.3,377,378.5z"/>
	<path class="st23" d="M220.4,405.1c0.5,3,1.4,6,1.4,9.1c0.1,4.2-0.1,8.5-0.8,12.7c-2.3,13.7-9.3,24.4-21,32
		c-6.4,4.1-13.1,7.6-20.7,8.8c-5.7,0.9-11.2,0.5-16.5-1.8c-3.9-1.7-7.8-3.2-11.8-4.8c1,0,2.1,0,3.2,0c0.8-1.9,1.9-3.5,3.8-4.5
		c2-1,2.1-1.3,1-3.4c-1.7-3.2-3.4-6.5-5.5-9.6c-3.8-5.8-5.2-12-3.7-18.8c0.9-3.9,2.7-7.4,5.7-9.9c5.6-4.6,12.2-7,19.3-8.1
		c3.8-0.6,7.7-0.6,11.5-1.3c3.1-0.6,6-0.1,8.8,0.7c5.2,1.6,10.2,3.5,15.3,5.3c0.8,0.3,1.5,1.2,2.1,1.9c1.6,2.2,3.6,3.1,6.7,2.2
		C219.6,412.3,220,408.7,220.4,405.1z"/>
	<path class="st25" d="M220.4,405.1c-0.4,3.6-0.8,7.2-1.1,10.8c-3.1,0.9-5.1,0-6.7-2.2c-0.6-0.8-1.3-1.6-2.1-1.9
		c-5.1-1.9-10.1-3.8-15.3-5.3c-2.8-0.9-5.7-1.3-8.8-0.7c-3.8,0.7-7.7,0.7-11.5,1.3c-7.1,1.1-13.7,3.5-19.3,8.1c-3,2.5-4.9,6-5.7,9.9
		c-1.5,6.8-0.1,13,3.7,18.8c2,3.1,3.7,6.3,5.5,9.6c1.1,2.1,1.1,2.4-1,3.4c-1.9,1-3.1,2.6-3.8,4.5c-1.2,0-2.2,0-3.2,0
		c-4.6-1.1-8.5-3.7-12.2-6.4c1.5-1.2,1.7-2.1,0.6-3.8c-1.4-2.1-2.9-4.1-4.4-6.1c-3-4.1-5.3-8.5-6.1-13.6c-0.5-3.1-0.8-6.3-1.4-9.4
		c-0.8-5-0.2-9.8,1.3-14.5c2.1-6.4,6.2-11.6,10.7-16.4c2.5-2.7,5.3-5.2,7.8-7.9c2-2.2,4.4-3.5,7.3-3.9c2.6-0.4,5.2-0.2,7.8-0.7
		c4.7-0.8,9.4-0.7,14.1,0.2c3.1,0.6,6.2,1.4,9.3,2.3c5.6,1.6,11.2,3.1,15.8,6.9c2.2,1.7,4.3,3.5,6.4,5.4c3.6,3.3,7.1,6.8,10.9,10.4
		c0.2-1,0.3-1.4,0.3-1.9C219.6,402.8,220,404,220.4,405.1z M145.3,386.6c-0.4,0.3-0.9,0.5-1.1,0.9c-1.7,4.1-1.9,8.2,0,12.4
		c0.4,0.9,0.8,1.8,1.3,2.9c-1.9,0-3.5-1.4-5,0.2c-3.1,1.2-5.2,3.2-6.1,6.5c-1.2,4.9,2.6,9,7.5,8.2c3.3-0.5,5.3-2.6,6.6-5.5
		c1-1.5,1.2-3.1-0.1-4.6c-0.1-0.4-0.3-0.8-0.4-1.2c0.2-0.4,0.4-0.8,0.5-1.1c0.6,0.4,1.2,0.8,1.8,1.2c3.1,2.3,6.4,2.7,9.9,1
		c4.5-1.7,7.3-5.3,9.8-9.1c2.1-3.2,2.1-6.8,0.3-10.2c-1-1.8-2.2-3.4-3.6-4.9c-4.8-5-12.6-5.3-17.8-0.7
		C147.6,383.7,146.6,385.2,145.3,386.6z"/>
	<path class="st24" d="M219.2,401.7c-0.1,0.5-0.2,0.9-0.3,1.9c-3.8-3.7-7.3-7.1-10.9-10.4c-2-1.9-4.2-3.7-6.4-5.4
		c-4.6-3.7-10.3-5.2-15.8-6.9c-3.1-0.9-6.1-1.7-9.3-2.3c-4.7-0.9-9.4-1-14.1-0.2c-2.6,0.4-5.2,0.3-7.8,0.7c-2.8,0.4-5.2,1.8-7.3,3.9
		c-2.5,2.7-5.2,5.2-7.8,7.9c-4.5,4.8-8.6,10-10.7,16.4c-1.6,4.7-2.2,9.6-1.3,14.5c0.5,3.1,0.9,6.3,1.4,9.4c0.8,5.1,3.2,9.5,6.1,13.6
		c1.5,2,3,4,4.4,6.1c1.1,1.7,0.9,2.6-0.6,3.8c-7.8-5.2-14.1-11.5-17.3-20.8c-3.6-10.5-4.7-20.9-2-31.7c0.4-1.5,0.6-3.1,0.6-4.6
		c-0.3-8.7,3-16,9.2-21.9c6.4-6.1,14.2-10.2,22.8-12.3c7.5-1.8,15.1-1.1,22.2,2.1c8.6,4,17.3,7.8,25.5,12.7c9,5.4,15.3,13,19.4,22.5
		C219.1,401.1,219.1,401.4,219.2,401.7z"/>
	<path class="st26" d="M278.8,459.5c-2.3-5.6-4.4-10.5-6.8-16c5.6,0.4,10.6,0.7,16.1,1.1C285,449.6,282.1,454.2,278.8,459.5z"/>
	<path class="st1" d="M377,378.5c0.6-0.2,1.3-0.3,1.9-0.5c5.9-1.8,11.5,0,15.2,4.9c0.8,1.1,1.6,2.1,2.5,3.2c0.3,0.8,0.7,1.6,1,2.4
		c2.3,5.7,1.7,11.1-2.2,15.8c-4,4.7-9.3,6.5-15.4,5.3c-2-0.4-4-1.4-5.9-2.1c-0.8-0.7-1.6-1.4-2.4-2.1c-5.8-5.6-6.6-14.3-1.8-20.8
		c0.6-0.8,1.3-1.7,1.9-2.5C373.5,380.8,375.2,379.6,377,378.5z"/>
	<path class="st0" d="M359.6,419.8c-4.3,0-7.9-2.7-9-6.8c-1.1-4.1,0.7-8.4,4.4-10.4c3.7-2,8.2-1.3,11.1,1.9c0.1,0.1,0.3,0.3,0.4,0.4
		c2.3,2.8,4,5.8,2.4,9.5C367.6,417.5,363.5,419.8,359.6,419.8z"/>
	<path class="st0" d="M148.2,406.4c0.1,0.4,0.3,0.8,0.4,1.2c0,1.5,0.1,3,0.1,4.6c-1.3,2.9-3.3,5-6.6,5.5c-5,0.8-8.8-3.3-7.5-8.2
		c0.8-3.3,3-5.3,6.1-6.5c2.3-0.2,4.4,0.4,6.3,1.8C147.4,405.3,147.8,405.8,148.2,406.4z"/>
	<path class="st0" d="M150.5,406.4c-0.6-0.4-1.2-0.8-1.8-1.2c-0.5-0.5-1.1-0.9-1.6-1.4c-0.4-0.8-0.7-1.6-1.1-2.3
		c-2.3-4-2.6-8.1-1.4-12.5c0.2-0.8,0.5-1.6,0.7-2.5c1.2-1.4,2.3-2.9,3.6-4.1c5.2-4.5,13-4.2,17.8,0.7c1.4,1.4,2.7,3.1,3.6,4.9
		c1.8,3.4,1.8,7-0.3,10.2c-2.5,3.8-5.3,7.4-9.8,9.1C157,408,153.7,407.5,150.5,406.4z M157.9,380.7c-8.6-0.7-12.8,6.4-13.1,13.1
		c-0.2,4.5,2,8.5,5.9,11c1.9,1.2,4.4,2,6.5,1.9c2.9-0.2,5.9-1,7.9-3.7c1.4-1.9,3.1-3.7,4.3-5.8c0.8-1.3,1.2-3.1,1.1-4.7
		C170.3,386.5,163.4,379.7,157.9,380.7z"/>
	<path class="st27" d="M145.3,386.6c-0.2,0.8-0.5,1.6-0.7,2.5c-1.3,4.4-0.9,8.5,1.4,12.5c0.4,0.7,0.7,1.5,1.1,2.3
		c0,0.3-0.1,0.6-0.1,0.9c-1.9-1.4-4-2-6.3-1.8c1.4-1.6,3-0.2,5-0.2c-0.5-1.1-0.9-2-1.3-2.9c-1.9-4.1-1.7-8.2,0-12.4
		C144.4,387.1,145,386.9,145.3,386.6z"/>
	<path class="st28" d="M150.5,406.4c3.2,1.1,6.5,1.5,9.9,1C156.9,409.2,153.6,408.8,150.5,406.4z"/>
	<path class="st28" d="M148.7,412.2c0-1.5-0.1-3-0.1-4.6C149.8,409.1,149.7,410.6,148.7,412.2z"/>
	<path class="st28" d="M147,404.8c0-0.3,0.1-0.6,0.1-0.9c0.5,0.5,1.1,0.9,1.6,1.4c-0.2,0.4-0.4,0.8-0.5,1.1
		C147.8,405.8,147.4,405.3,147,404.8z"/>
	<path class="st1" d="M157.9,380.7c5.4-1.1,12.4,5.8,12.7,11.9c0.1,1.6-0.3,3.3-1.1,4.7c-1.2,2.1-2.9,3.8-4.3,5.8
		c-2,2.7-5,3.5-7.9,3.7c-2.2,0.1-4.7-0.7-6.5-1.9c-3.9-2.5-6.1-6.5-5.9-11C145.1,387.2,149.4,380.1,157.9,380.7z"/>
</g>
</svg>
